<?xml version="1.0" encoding="UTF-8"?><svg xmlns="http://www.w3.org/2000/svg" viewBox="0 0 7248.21 2154.75"><defs><style>.h{fill:#fff;}.i{fill:none;}</style></defs><g id="a"><polygon points="3664.58 2154.75 7248.21 2154.75 7248.21 0 3652.86 0 3664.58 2154.75"/></g><g id="b"/><g id="c"/><g id="d"/><g id="e"/><g id="f"><g><path class="i" d="M1583.16,971.65c-5.06-123.02-36.88-213.58-28.29-218.09,12.1-6.35,16.67,5.87,19.56,14.51,14.24,42.56,30.54,183.14,8.73,203.58Zm158.24-24.96c-.82,11.09-11.54-7.93-12.74-15.53-4.42-28.12,9.58-198.41,35.72-212.54,8.28-4.48-12.12,80.93-22.98,228.07Z"/><path d="M2020.64,477.87c-23.05-12.09-47.26-19.63-72.32-24.81-10.63-2.2-21.98-.79-34.75-7.27,35.62-17.42,61.42-42.58,70.32-82.66,8.59-38.66,6.25-76.61-17-109.46-23.07-32.59-61.63-51.86-94.21-51.86-15.62,0-29.86,4.43-40.36,13.95,1.6-.06,3.19-.1,4.76-.1,31.97,0,58.63,13.15,79.74,38.97,17.75,21.71,23.84,47.39,16.14,75.82-7.56,27.9-26.48,41.56-51.55,46.21-10.25,1.9-20.74,3.72-31.09,3.72-1.12,0-2.24-.02-3.35-.07-59.66-2.39-114.6-20.51-163-59.88-30.86-25.11-55.33-57.52-83.54-85.61-31.06-30.94-66.69-52.65-106.8-52.66-9.34,0-18.92,1.18-28.75,3.69-88.99,22.75-94.34,100.21-71.15,153.65,.87-1.21-8.73-99.52,72.11-100.64,.48,0,.97-.01,1.45-.01,35.27,0,62.95,18.08,85.96,45.5,17.09,20.36,31.95,42.95,49.17,63.17,54.04,63.47,120.21,101.91,199.58,112.09,1.99,.26,3.97,.65,6.15,2.05-40.62,15.35-78.37,36.71-115.59,59.33-23.29,14.15-46.58,28.22-70.84,40.52-35.38,17.93-72.13,23.69-109.53,23.69-13.07,0-26.21-.7-39.41-1.84-28.85-2.48-57.3-8.29-84.53-19.64-2.4-1-27.65-13.45-30.46-15.08-51.33-29.95-44.81-81.07-14.08-119.28,20.29-25.23,49.19-37.16,78.52-37.16,40.42,0,81.65,22.65,102.31,64.35,5.46,11.01,14.65,33.96,14.65,33.96-4.64-61.67-35.39-137.04-118.43-147.62-2.77-.35-12.62-1.85-24.83-1.85-7.25,0-15.33,.53-23.26,2.14-27.46,4.44-51.73,16.81-73.44,35.7-54.02,47.02-71.56,134.82-38.83,196.73,18.42,34.83,46.38,58.48,78.43,76.66,56.26,31.91,116.96,45.84,179.54,45.84,1.15,0,2.3,0,3.45-.01,57.98-.47,140-30.5,187.78-60.75,37.3-23.61,72.97-50.29,112.21-70.22,34.65-17.6,70.07-26.67,106.07-26.67,22.48,0,45.19,3.53,68.1,10.73,38.34,12.04,60.68,40.88,57.02,84.48-1.86,22.14-15.3,41.75-29.62,56.7,8.77-71.64,2.72-126.16-53.41-126.16-8.7,0-18.59,1.31-29.82,4.06-106.5,26.14-92.61,120.06-34.96,141.41,22.3,8.26,53.82,10.2,67.42,10.66,3.4,.11,5.8,3.67,4.92,7.24-25.81,104.66-37.95,150.87-64.94,223.95-.07,.2-.16,.4-.25,.59-20.35,41.14-21.45,50.9-61.26,50.9-36.95,0-73.94-.1-110.9-.1-89.55,0-179.07,.58-268.48,4.55-5.15,.23-9.88,.39-14.21,.39-29.55,0-40.55-7.45-41.79-51.28-3.47-123.67-78.23-223.59-112.48-258.46-1.09-1.11-2.35-1.59-3.56-1.59-3.45,0-6.58,3.87-4.86,8.11,21.99,54.28,79.6,206.21,64.95,274.65-17.08,79.79,44.32,94.98,73.69,96.69,6.1,.35,18.76,.51,35.97,.51,95.03,0,329.2-4.62,369.16-5.18,82.81-1.16,105.61-19.1,128.21-107.55,17.18-67.24,32.67-135.14,45.35-203.59,2.89-15.62,5.63-31.02,7.93-45.9,36.99-11.5,89.99-43.98,79.78-135.01-3.37-30.07-24.35-74.61-79.21-103.37Zm-36.48,224.29c-.67,2.43-2.73,4.08-5.05,4.09-.26,0-.52,0-.78,0-57.72,0-92.39-24.33-91.74-62.8,.71-41.86,34.33-57,67.58-58.11,.6-.02,1.2-.03,1.78-.03,57.35,0,34,95.85,28.2,116.86Z"/><path d="M1764.38,718.62c-26.14,14.13-40.14,184.43-35.72,212.54,1.19,7.6,11.92,26.62,12.74,15.53,10.86-147.15,31.26-232.55,22.98-228.07Z"/><path d="M1554.88,753.55c-8.59,4.51,23.22,95.08,28.29,218.09,21.81-20.44,5.52-161.03-8.73-203.58-2.89-8.64-7.46-20.86-19.56-14.51Z"/></g><g><path d="M179.25,1636.14h-30.8c-26.14-1.87-49.24-7.94-69.3-18.2-13.07-6.07-24.74-14-35-23.8-15.4-14.47-26.84-31.5-34.3-51.1-12.13-32.2-13.06-64.4-2.8-96.6,10.73-33.13,31.03-57.16,60.9-72.1,15.86-7.93,32.66-11.9,50.4-11.9s32.66,3.5,46.2,10.5c7.46,3.74,14.46,8.64,21,14.7,19.6,19.14,25.9,42.24,18.9,69.3-.94,5.14-3.04,10.74-6.3,16.8-11.2,22.87-28.7,36.87-52.5,42-2.8,.47-6.89,.7-12.25,.7s-9.45-.23-12.25-.7c-13.54-3.26-23.57-9.56-30.1-18.9-7-10.73-8.64-21.7-4.9-32.9,1.86-5.6,6.3-12.36,13.3-20.3,8.4-9.33,15.4-15.4,21-18.2,2.33-.93,4.43-1.4,6.3-1.4s3.5,.24,4.9,.7c4.2,2.8,5.13,6.77,2.8,11.9-.94,1.87-3.74,6.07-8.4,12.6-10.74,16.8-15.87,27.07-15.4,30.8,.93,4.67,4.2,8.4,9.8,11.2,7,3.27,15.16,3.5,24.5,.7,13.53-4.66,24.03-14,31.5-28,6.53-13.06,7.7-25.9,3.5-38.5-3.74-12.13-12.14-21.46-25.2-28-19.14-9.33-39.44-10.26-60.9-2.8-12.6,4.2-23.8,11.2-33.6,21-20.54,20.07-30.34,45.74-29.4,77,.46,12.6,2.56,24.04,6.3,34.3,2.8,7,6.06,13.53,9.8,19.6,5.6,8.86,12.83,16.8,21.7,23.8,28,22.86,64.16,31.5,108.5,25.9,24.73-2.8,47.36-11.2,67.9-25.2,22.4-14.94,35.93-33.37,40.6-55.3,1.86-9.33,1.86-19.13,0-29.4-5.6-30.8-22.87-61.83-51.8-93.1-13.07-14-35.47-33.13-67.2-57.4-14.94-11.66-25.9-20.53-32.9-26.6-11.2-9.33-20.07-18.2-26.6-26.6-15.87-19.6-25.44-40.36-28.7-62.3-1.4-8.86-1.64-17.96-.7-27.3,1.4-19.13,7-38.03,16.8-56.7,16.8-33.13,39.9-60.2,69.3-81.2,20.53-14.93,41.06-24.03,61.6-27.3,7-.93,14-1.16,21-.7,11.66,.47,22.4,3.27,32.2,8.4,9.8,5.14,18.55,11.79,26.25,19.95,7.7,8.17,14,18.09,18.9,29.75,4.9,11.67,8.28,24.5,10.15,38.5,3.26,24.27,1.4,49.24-5.6,74.9-7.94,28.94-19.37,52.97-34.3,72.1-5.14,6.54-10.27,11.9-15.4,16.1-8.87,6.54-17.04,9.8-24.5,9.8s-13.07-2.45-16.8-7.35c-3.74-4.9-4.9-11.08-3.5-18.55,.93-4.66,5.83-18.43,14.7-41.3,9.33-24.26,15.4-47.83,18.2-70.7,.46-3.26,.58-8.05,.35-14.35-.24-6.3-.59-10.85-1.05-13.65-3.27-22.4-11.2-34.53-23.8-36.4-7-.93-15.87,1.4-26.6,7-10.74,5.6-21.47,13.77-32.2,24.5-16.8,16.34-29.4,33.6-37.8,51.8-9.34,20.54-10.04,38.97-2.1,55.3,6.53,13.54,23.8,31.04,51.8,52.5,20.06,15.4,34.3,26.84,42.7,34.3,27.53,23.34,49.7,47.14,66.5,71.4,19.13,28.47,30.56,57.17,34.3,86.1,1.86,12.14,1.86,24.5,0,37.1-6.07,38.26-27.3,68.83-63.7,91.7-9.34,6.06-19.14,10.96-29.4,14.7-21,8.4-43.17,13.53-66.5,15.4Z"/><path d="M590.84,1615.44c-24.74-2.34-45.74-17.04-63-44.1-5.14-7.93-9.57-16.8-13.3-26.6-1.4-4.2-2.1-6.53-2.1-7l-2.1,2.8c-4.67,11.2-10.74,21.7-18.2,31.5-11.67,15.4-25.44,23.8-41.3,25.2-13.54,1.4-26.37-2.57-38.5-11.9-7-5.14-13.77-11.9-20.3-20.3-12.6-16.8-22.17-38.5-28.7-65.1-3.26-13.53-5.13-28.23-5.6-44.1-.46-15.4,1.17-26.83,4.9-34.3,3.26-6.53,7.7-11.08,13.3-13.65,5.6-2.56,11.43-2.91,17.5-1.05,9.8,3.27,16.33,12.14,19.6,26.6,.46,3.74,1.63,13.77,3.5,30.1,2.8,34.07,7.46,59.27,14,75.6,4.66,13.07,10.73,21.47,18.2,25.2,1.86,.94,3.96,1.4,6.3,1.4s4.66-.7,7-2.1c8.4-4.2,17.26-14.93,26.6-32.2,5.13-9.33,8.63-16.33,10.5-21,1.86-4.66,2.8-7.46,2.8-8.4s-.47-3.96-1.4-9.1c-2.8-12.6-4.67-24.03-5.6-34.3-.94-4.66-1.4-11.9-1.4-21.7s.46-16.33,1.4-19.6c1.86-11.66,6.53-19.36,14-23.1,1.86-.93,4.2-1.4,7-1.4s5.36,.47,7.7,1.4c5.6,2.8,9.8,8.4,12.6,16.8,1.86,6.07,4.2,21.24,7,45.5,4.2,35.47,9.56,62.54,16.1,81.2,5.13,16.8,11.9,28.94,20.3,36.4,1.86,1.4,4.2,2.8,7,4.2,2.8,1.4,5.13,2.33,7,2.8,4.66,.93,9.56,.93,14.7,0,10.26-2.34,20.53-7.7,30.8-16.1,2.33-1.86,5.36-4.66,9.1-8.4,12.13-12.13,22.16-26.6,30.1-43.4,7-14,10.03-21.23,9.1-21.7l-6.3-2.1c-22.87-6.06-40.84-18.9-53.9-38.5-16.34-25.2-21.94-51.33-16.8-78.4,2.8-13.06,8.05-23.91,15.75-32.55,7.7-8.63,16.45-13.88,26.25-15.75,4.66-.46,9.1-.46,13.3,0,7,1.4,13.53,4.44,19.6,9.1,18.66,14,30.1,38.04,34.3,72.1,2.33,19.14,2.1,38.74-.7,58.8-.94,5.14-1.4,8.17-1.4,9.1v1.4h2.1c12.6-1.86,27.3-7.46,44.1-16.8,1.4-.93,3.03-1.86,4.9-2.8,7.46-4.66,12.83-4.2,16.1,1.4,2.8,4.67,1.86,8.4-2.8,11.2-5.14,3.74-10.5,7-16.1,9.8-16.34,7.94-32.9,12.84-49.7,14.7l-3.5,.7-3.5,10.5c-11.2,33.14-26.14,59.5-44.8,79.1-6.54,7-13.3,12.83-20.3,17.5-17.74,11.66-35.47,16.8-53.2,15.4Zm100.8-142.1c.93,0,1.86-1.63,2.8-4.9,7.46-33.6,7-63.23-1.4-88.9-1.87-6.53-4.44-12.36-7.7-17.5-3.27-5.13-7-9.21-11.2-12.25-4.2-3.03-8.4-4.78-12.6-5.25-5.6-.93-11.2,1.17-16.8,6.3-7.94,7.47-12.72,18.55-14.35,33.25-1.64,14.7,.35,28.82,5.95,42.35,7.46,18.67,19.83,32.44,37.1,41.3,8.86,4.2,14.93,6.07,18.2,5.6Z"/><path d="M978.64,1457.24c-2.8,6.07-8.75,16.34-17.85,30.8-9.1,14.47-22.99,32.2-41.65,53.2-18.67,21-37.1,37.1-55.3,48.3-27.07,15.4-50.29,19.01-69.65,10.85-19.37-8.17-33.25-26.95-41.65-56.35-3.73-13.53-5.6-28-5.6-43.4,0-23.33,4.67-45.26,14-65.8,12.13-26.13,28.7-44.68,49.7-55.65,21-10.96,40.13-11.31,57.4-1.05,5.13,3.27,9.8,7.47,14,12.6,4.2,5.14,7.35,10.74,9.45,16.8,2.1,6.07,3.61,12.37,4.55,18.9,.93,6.54,.46,12.6-1.4,18.2-3.27,21-14.59,40.25-33.95,57.75-19.37,17.5-40.95,30.22-64.75,38.15,1.4,7.94,3.5,14.94,6.3,21,4.66,9.34,13.06,14.24,25.2,14.7,12.13,.47,22.16-2.1,30.1-7.7,17.73-9.8,36.28-25.9,55.65-48.3,19.36-22.4,36.51-45.03,51.45-67.9,1.86-5.6,5.36-7.46,10.5-5.6,5.13,1.87,6.3,5.37,3.5,10.5Zm-114.1,7c4.66-9.33,5.01-18.9,1.05-28.7-3.97-9.8-11.32-13.76-22.05-11.9-12.6,1.87-23.57,10.97-32.9,27.3-3.74,6.54-7,14.47-9.8,23.8-5.14,16.34-7.24,33.14-6.3,50.4v.7c15.4-7.46,29.51-16.8,42.35-28,12.83-11.2,22.05-22.4,27.65-33.6Z"/><path d="M1178.14,1457.24c-2.8,6.07-8.75,16.34-17.85,30.8-9.1,14.47-22.99,32.2-41.65,53.2-18.67,21-37.1,37.1-55.3,48.3-27.07,15.4-50.29,19.01-69.65,10.85-19.37-8.17-33.25-26.95-41.65-56.35-3.73-13.53-5.6-28-5.6-43.4,0-23.33,4.67-45.26,14-65.8,12.13-26.13,28.7-44.68,49.7-55.65,21-10.96,40.13-11.31,57.4-1.05,5.13,3.27,9.8,7.47,14,12.6,4.2,5.14,7.35,10.74,9.45,16.8,2.1,6.07,3.61,12.37,4.55,18.9,.93,6.54,.46,12.6-1.4,18.2-3.27,21-14.59,40.25-33.95,57.75-19.37,17.5-40.95,30.22-64.75,38.15,1.4,7.94,3.5,14.94,6.3,21,4.66,9.34,13.06,14.24,25.2,14.7,12.13,.47,22.16-2.1,30.1-7.7,17.73-9.8,36.28-25.9,55.65-48.3,19.36-22.4,36.51-45.03,51.45-67.9,1.86-5.6,5.36-7.46,10.5-5.6,5.13,1.87,6.3,5.37,3.5,10.5Zm-114.1,7c4.66-9.33,5.01-18.9,1.05-28.7-3.97-9.8-11.32-13.76-22.05-11.9-12.6,1.87-23.57,10.97-32.9,27.3-3.74,6.54-7,14.47-9.8,23.8-5.14,16.34-7.24,33.14-6.3,50.4v.7c15.4-7.46,29.51-16.8,42.35-28,12.83-11.2,22.05-22.4,27.65-33.6Z"/><path d="M1272.63,1599.34c-8.87-.94-17.5-3.27-25.9-7-12.6-6.07-24.74-16.45-36.4-31.15-11.67-14.7-21.47-32.08-29.4-52.15-20.54-52.26-28.93-124.6-25.2-217,.93-23.8,2.33-45.5,4.2-65.1,.93-6.06,1.16-9.33,.7-9.8-.94-.93-8.86-1.4-23.8-1.4s-26.83,.24-35.7,.7c-43.86,3.27-75.83,10.04-95.9,20.3-10.26,5.6-18.78,13.19-25.55,22.75-6.76,9.57-12.95,14.35-18.55,14.35-1.4,0-2.8-.23-4.2-.7-3.73-1.86-6.3-5.6-7.7-11.2-2.33-8.4,.24-18.2,7.7-29.4,7.47-11.66,19.14-21.46,35-29.4,25.2-12.6,61.6-20.3,109.2-23.1,5.6-.46,15.17-.7,28.7-.7s22.99,.12,28.35,.35c5.36,.24,8.28,.24,8.75,0,.46-.23,.93-.81,1.4-1.75,.93-6.53,3.73-14.46,8.4-23.8,3.26-7,6.76-12.36,10.5-16.1,9.33-8.86,19.13-10.73,29.4-5.6,4.2,2.34,7.46,6.07,9.8,11.2,4.2,8.4,6.3,20.77,6.3,37.1,0,3.74,.23,5.72,.7,5.95,.46,.24,3.5,.82,9.1,1.75,10.26,1.4,26.36,3.74,48.3,7,27.06,4.2,48.3,7.24,63.7,9.1,5.6,.47,8.63,.7,9.1,.7s.93-.93,1.4-2.8c2.33-13.53,12.13-25.9,29.4-37.1,16.8-11.2,36.4-17.5,58.8-18.9,21-1.4,37.1,3.74,48.3,15.4,5.6,6.07,8.86,13.07,9.8,21,.93,7-.24,13.77-3.5,20.3-3.74,7.47-9.34,13.77-16.8,18.9-14.47,9.34-34.07,15.17-58.8,17.5-22.4,2.34-52.04,1.87-88.9-1.4-14-1.4-39.2-4.66-75.6-9.8-24.27-3.26-36.64-4.66-37.1-4.2s-.7,3.5-.7,9.1c-.47,7-1.87,22.87-4.2,47.6-2.8,32.2-4.44,59.74-4.9,82.6-.47,27.54,0,48.54,1.4,63,1.86,30.34,5.83,56.24,11.9,77.7,8.86,30.8,21.46,49.7,37.8,56.7,5.6,2.34,10.85,3.74,15.75,4.2,4.9,.47,9.56-.58,14-3.15,4.43-2.56,8.4-5.25,11.9-8.05s6.88-7.23,10.15-13.3c3.26-6.06,6.06-11.2,8.4-15.4,2.33-4.2,5.01-10.5,8.05-18.9,3.03-8.4,5.36-14.93,7-19.6,1.63-4.66,3.85-11.43,6.65-20.3,1.86-5.6,3.03-9.8,3.5-12.6,2.8-5.13,6.88-8.4,12.25-9.8,5.36-1.4,9.56-.11,12.6,3.85,3.03,3.97,3.15,9.69,.35,17.15-5.6,18.67-11.32,35.24-17.15,49.7-5.84,14.47-13.19,28.94-22.05,43.4-8.87,14.47-19.37,25.31-31.5,32.55-12.14,7.23-25.2,10.15-39.2,8.75Zm109.9-392c1.86,.47,9.68,.7,23.45,.7s24.15-.23,31.15-.7c5.6,0,10.26-.23,14-.7,8.4-.93,15.75-2.56,22.05-4.9,6.3-2.33,11.2-5.01,14.7-8.05,3.5-3.03,5.25-6.18,5.25-9.45,0-4.66-3.04-8.86-9.1-12.6-5.6-3.26-13.54-5.13-23.8-5.6-17.74-.93-35,3.74-51.8,14-9.34,5.6-17.04,12.6-23.1,21-2.8,3.74-3.74,5.84-2.8,6.3Z"/><path d="M1702.51,1278.74c-.47-3.73-2.45-7.23-5.95-10.5-3.5-3.26-7.7-5.48-12.6-6.65-4.9-1.16-9.8-1.4-14.7-.7-4.9,.7-9.69,2.92-14.35,6.65-4.67,3.74-7.94,8.87-9.8,15.4-4.67,12.6-4.79,26.49-.35,41.65,4.43,15.17,12.95,28.35,25.55,39.55,6.53,0,14.46,1.87,23.8,5.6,4.2,1.4,6.53,3.97,7,7.7,.46,3.74-2.57,5.84-9.1,6.3-10.27,0-20.07-2.33-29.4-7-14.47,2.34-25.09,11.55-31.85,27.65-6.77,16.1-8.99,34.54-6.65,55.3,2.33,20.77,8.4,39.79,18.2,57.05,8.86,16.8,20.41,29.05,34.65,36.75,14.23,7.7,27.18,8.05,38.85,1.05,10.26-6.06,17.5-15.63,21.7-28.7,4.2-13.06,5.6-26.36,4.2-39.9-.94-5.6-2.22-10.85-3.85-15.75-1.64-4.9-3.85-9.1-6.65-12.6s-5.95-5.83-9.45-7c-3.5-1.16-7.35-1.05-11.55,.35-4.67,1.87-5.72,7.59-3.15,17.15,2.56,9.57,2.68,15.05,.35,16.45-6.07,2.8-10.74-.93-14-11.2-6.07-17.73-1.87-34.76,12.6-51.1,7.46-8.86,17.26-16.1,29.4-21.7,.93-.46,3.15-1.4,6.65-2.8,3.5-1.4,6.18-2.56,8.05-3.5l7-3.5c2.8-1.4,5.25-2.91,7.35-4.55,2.1-1.63,3.85-3.38,5.25-5.25,6.53-7.46,7.81-16.33,3.85-26.6-3.97-10.26-11.55-14-22.75-11.2-3.27,.94-5.14-.23-5.6-3.5-.94-2.33,0-4.2,2.8-5.6,10.26-4.2,18.66-5.01,25.2-2.45,6.53,2.57,11.31,6.54,14.35,11.9,3.03,5.37,4.31,11.67,3.85,18.9-.47,7.24-2.8,13.65-7,19.25-1.87,2.34-4.09,4.44-6.65,6.3-2.57,1.87-5.6,3.85-9.1,5.95s-6.54,3.85-9.1,5.25c-2.57,1.4-6.19,3.15-10.85,5.25-4.67,2.1-7.94,3.62-9.8,4.55-8.87,4.2-16.45,9.8-22.75,16.8s-9.69,13.3-10.15,18.9c11.66-9.8,21.93-10.15,30.8-1.05,8.86,9.1,14.46,21.82,16.8,38.15,1.4,10.74,1.16,21.7-.7,32.9-1.87,11.2-6.07,22.4-12.6,33.6-6.54,11.2-14.94,20.07-25.2,26.6-16.8,11.2-35.82,12.6-57.05,4.2-21.24-8.4-38.15-24.96-50.75-49.7-10.74-21-16.91-43.4-18.55-67.2-1.63-23.8,2.8-44.8,13.3-63s26.71-28.23,48.65-30.1c-13.54-7-23.34-17.73-29.4-32.2-6.07-14.46-8.29-28.58-6.65-42.35,1.63-13.76,7.11-25.78,16.45-36.05,9.33-10.26,21.23-14.93,35.7-14,9.8,.94,18.78,4.55,26.95,10.85,8.16,6.3,12.71,13.65,13.65,22.05,.93,8.87-1.17,16.1-6.3,21.7-5.14,5.6-12.14,6.77-21,3.5-2.8-.93-3.74-2.8-2.8-5.6,.93-2.8,3.03-3.73,6.3-2.8,9.33,3.27,15.4,1.17,18.2-6.3,.93-2.8,1.16-5.83,.7-9.1Z"/><path d="M2137.1,1635.14h-30.8c-26.14-1.87-49.24-7.94-69.3-18.2-13.07-6.07-24.74-14-35-23.8-15.4-14.47-26.84-31.5-34.3-51.1-12.13-32.2-13.06-64.4-2.8-96.6,10.73-33.13,31.03-57.16,60.9-72.1,15.86-7.93,32.66-11.9,50.4-11.9s32.66,3.5,46.2,10.5c7.46,3.74,14.46,8.64,21,14.7,19.6,19.14,25.9,42.24,18.9,69.3-.94,5.14-3.04,10.74-6.3,16.8-11.2,22.87-28.7,36.87-52.5,42-2.8,.47-6.89,.7-12.25,.7s-9.45-.23-12.25-.7c-13.54-3.26-23.57-9.56-30.1-18.9-7-10.73-8.64-21.7-4.9-32.9,1.86-5.6,6.3-12.36,13.3-20.3,8.4-9.33,15.4-15.4,21-18.2,2.33-.93,4.43-1.4,6.3-1.4s3.5,.24,4.9,.7c4.2,2.8,5.13,6.77,2.8,11.9-.94,1.87-3.74,6.07-8.4,12.6-10.74,16.8-15.87,27.07-15.4,30.8,.93,4.67,4.2,8.4,9.8,11.2,7,3.27,15.16,3.5,24.5,.7,13.53-4.66,24.03-14,31.5-28,6.53-13.06,7.7-25.9,3.5-38.5-3.74-12.13-12.14-21.46-25.2-28-19.14-9.33-39.44-10.26-60.9-2.8-12.6,4.2-23.8,11.2-33.6,21-20.54,20.07-30.34,45.74-29.4,77,.46,12.6,2.56,24.04,6.3,34.3,2.8,7,6.06,13.53,9.8,19.6,5.6,8.86,12.83,16.8,21.7,23.8,28,22.86,64.16,31.5,108.5,25.9,24.73-2.8,47.36-11.2,67.9-25.2,22.4-14.94,35.93-33.37,40.6-55.3,1.86-9.33,1.86-19.13,0-29.4-5.6-30.8-22.87-61.83-51.8-93.1-13.07-14-35.47-33.13-67.2-57.4-14.94-11.66-25.9-20.53-32.9-26.6-11.2-9.33-20.07-18.2-26.6-26.6-15.87-19.6-25.44-40.36-28.7-62.3-1.4-8.86-1.64-17.96-.7-27.3,1.4-19.13,7-38.03,16.8-56.7,16.8-33.13,39.9-60.2,69.3-81.2,20.53-14.93,41.06-24.03,61.6-27.3,7-.93,14-1.16,21-.7,11.66,.47,22.4,3.27,32.2,8.4,9.8,5.14,18.55,11.79,26.25,19.95,7.7,8.17,14,18.09,18.9,29.75,4.9,11.67,8.28,24.5,10.15,38.5,3.26,24.27,1.4,49.24-5.6,74.9-7.94,28.94-19.37,52.97-34.3,72.1-5.14,6.54-10.27,11.9-15.4,16.1-8.87,6.54-17.04,9.8-24.5,9.8s-13.07-2.45-16.8-7.35c-3.74-4.9-4.9-11.08-3.5-18.55,.93-4.66,5.83-18.43,14.7-41.3,9.33-24.26,15.4-47.83,18.2-70.7,.46-3.26,.58-8.05,.35-14.35-.24-6.3-.59-10.85-1.05-13.65-3.27-22.4-11.2-34.53-23.8-36.4-7-.93-15.87,1.4-26.6,7-10.74,5.6-21.47,13.77-32.2,24.5-16.8,16.34-29.4,33.6-37.8,51.8-9.34,20.54-10.04,38.97-2.1,55.3,6.53,13.54,23.8,31.04,51.8,52.5,20.06,15.4,34.3,26.84,42.7,34.3,27.53,23.34,49.7,47.14,66.5,71.4,19.13,28.47,30.56,57.17,34.3,86.1,1.86,12.14,1.86,24.5,0,37.1-6.07,38.26-27.3,68.83-63.7,91.7-9.34,6.06-19.14,10.96-29.4,14.7-21,8.4-43.17,13.53-66.5,15.4Z"/><path d="M2340.09,1376.04c2.8-2.33,6.06-3.5,9.8-3.5,2.33,0,4.2,.47,5.6,1.4,4.66,2.34,7.93,6.77,9.8,13.3,1.4,6.54,1.4,19.84,0,39.9-.94,9.8-1.64,18.2-2.1,25.2-.94,9.8-1.64,20.3-2.1,31.5-5.14,60.2,.93,89.6,18.2,88.2,9.8-.46,21.93-14.23,36.4-41.3,14.46-27.06,26.83-53.66,37.1-79.8,1.4-4.66,5.13-5.83,11.2-3.5,6.06,1.87,7.46,6.07,4.2,12.6-19.6,47.6-37.45,82.95-53.55,106.05-16.1,23.1-33.72,34.41-52.85,33.95-20.54-.94-34.07-12.6-40.6-35-3.73-11.66-5.71-31.03-5.95-58.1-.23-27.06,1.75-53.9,5.95-80.5,4.2-26.6,10.5-43.4,18.9-50.4Zm-12.6-49.7c0-7,2.56-12.95,7.7-17.85,5.13-4.9,11.2-7.35,18.2-7.35s13.06,2.45,18.2,7.35c5.13,4.9,7.7,10.85,7.7,17.85s-2.57,12.95-7.7,17.85c-5.14,4.9-11.2,7.35-18.2,7.35-4.67,0-8.99-1.16-12.95-3.5-3.97-2.33-7.12-5.36-9.45-9.1-2.34-3.73-3.5-7.93-3.5-12.6Z"/><path d="M2627.79,1404.04c-7.47-4.66-19.14,5.6-35,30.8-7.94,17.74-11.9,29.17-11.9,34.3,0,1.87,.23,4.9,.7,9.1,1.4,10.74,3.03,26.14,4.9,46.2,.46,3.74,.7,10.04,.7,18.9,0,18.2-1.17,30.34-3.5,36.4-1.4,4.66-4.2,7.46-8.4,8.4-6.54,1.86-12.14-.59-16.8-7.35-4.67-6.76-8.87-16.21-12.6-28.35-6.07-21-7.94-52.26-5.6-93.8,.93-24.26-1.87-36.4-8.4-36.4-8.4,0-17.5,10.85-27.3,32.55-9.8,21.7-14.24,39.55-13.3,53.55,0,8.87,.93,20.54,2.8,35,1.4,9.8,2.1,17.97,2.1,24.5,0,8.4-1.4,14-4.2,16.8s-6.3,3.96-10.5,3.5c-4.2-.47-8.87-3.5-14-9.1-8.87-10.26-16.1-25.43-21.7-45.5-4.2-14.46-7.23-30.56-9.1-48.3-.46-5.6-.7-14.35-.7-26.25s.24-20.41,.7-25.55c3.74-32.66,12.36-52.5,25.9-59.5,5.13-2.8,10.15-3.38,15.05-1.75,4.9,1.64,8.75,4.79,11.55,9.45,2.8,6.07,4.2,16.34,4.2,30.8v12.25c0,.24,.93-1.05,2.8-3.85,5.6-9.33,11.9-18.2,18.9-26.6,12.6-14.93,24.26-20.76,35-17.5,8.86,2.8,15.4,11.67,19.6,26.6,.93,2.8,1.98,7.35,3.15,13.65,1.16,6.3,1.86,9.22,2.1,8.75,.23-.46,1.51-2.8,3.85-7,7-14,16.1-26.36,27.3-37.1,8.4-7.93,15.86-12.6,22.4-14,8.86-1.86,16.33,1.87,22.4,11.2,7.93,11.2,13.06,28.47,15.4,51.8,.46,2.34,.81,9.57,1.05,21.7,.23,12.14,.81,24.5,1.75,37.1,.93,12.6,2.1,25.44,3.5,38.5,1.4,13.07,3.85,23.69,7.35,31.85,3.5,8.17,7.58,12.25,12.25,12.25s10.15-6.53,16.45-19.6c6.3-13.06,14.11-33.01,23.45-59.85,9.33-26.83,14.23-41.18,14.7-43.05,1.86-4.2,6.06-5.6,12.6-4.2,7,2.34,9.56,7.24,7.7,14.7-26.6,94.27-54.37,140.7-83.3,139.3-20.54-.47-34.3-11.9-41.3-34.3-3.27-10.73-5.49-28.35-6.65-52.85-1.17-24.5-1.05-46.55,.35-66.15,1.4-23.33-1.4-37.33-8.4-42Z"/><path d="M2729.99,1449.54c-1.4-28-1.63-44.56-.7-49.7,.47-4.2,1.17-7.23,2.1-9.1,2.8-5.6,6.53-9.1,11.2-10.5,1.86-.46,4.43-.46,7.7,0,3.26,.47,6.06,1.4,8.4,2.8,5.6,3.74,10.03,10.27,13.3,19.6,.93,2.34,1.63,3.62,2.1,3.85,.46,.24,1.4-.35,2.8-1.75,6.06-7.93,14.23-14.93,24.5-21,18.2-11.2,35.93-15.63,53.2-13.3,11.66,1.4,22.16,6.3,31.5,14.7,5.13,4.67,9.56,10.5,13.3,17.5,7.93,14.47,12.6,31.97,14,52.5,.93,9.8,.7,20.77-.7,32.9-1.4,9.34-1.87,14-1.4,14,.93,0,10.03-2.8,27.3-8.4,12.13-4.2,23.33-8.86,33.6-14,8.4-3.73,14-2.8,16.8,2.8,2.8,5.14,.93,8.64-5.6,10.5-17.74,8.87-39.2,17.5-64.4,25.9-8.4,2.34-12.84,3.74-13.3,4.2-.47,.47-1.17,2.34-2.1,5.6-6.07,18.67-14.24,35-24.5,49-11.67,16.33-24.04,26.95-37.1,31.85-13.07,4.9-24.27,3.38-33.6-4.55-4.67-3.74-8.17-8.4-10.5-14-2.8-7.47-3.5-15.16-2.1-23.1,1.86-10.26,7.93-19.36,18.2-27.3,10.26-8.86,25.9-16.8,46.9-23.8,6.06-1.86,9.33-3.03,9.8-3.5s1.4-5.95,2.8-16.45c1.4-10.5,2.1-18.08,2.1-22.75,.46-11.2-.24-21.23-2.1-30.1-4.2-21.46-11.9-32.9-23.1-34.3-5.6-.93-12.6,.94-21,5.6-8.4,4.67-15.4,10.74-21,18.2-10.74,13.54-18.44,28.94-23.1,46.2-1.4,5.14-2.22,22.29-2.45,51.45-.24,29.17-.24,61.83,0,98,.23,36.16,.35,57.28,.35,63.35-1.4,76.06-5.14,122.5-11.2,139.3-3.74,10.26-10.5,14.7-20.3,13.3-8.87-1.4-14.47-7.7-16.8-18.9,0-1.4,.24-50.17,.7-146.3,.93-117.13-.93-193.9-5.6-230.3Zm93.8,138.6c1.86,0,3.73-.24,5.6-.7,10.26-5.14,20.06-17.5,29.4-37.1,4.2-8.86,6.06-13.76,5.6-14.7-.47-.46-3.97,.7-10.5,3.5-6.54,2.8-11.9,5.37-16.1,7.7-7.47,4.2-13.3,8.4-17.5,12.6-4.67,5.6-6.77,10.74-6.3,15.4,0,3.73,1.16,7,3.5,9.8,1.4,2.33,3.5,3.5,6.3,3.5Z"/><path d="M3068.08,1620.34c-27.54-1.87-51.1-17.74-70.7-47.6-22.4-33.6-36.87-80.03-43.4-139.3-2.8-21.46-3.96-45.73-3.5-72.8,.47-22.86,1.87-43.86,4.2-63,6.06-52.73,17.73-98.46,35-137.2,8.86-20.06,18.9-36.63,30.1-49.7,11.2-13.06,22.86-21.23,35-24.5,6.53-1.4,12.6-1.4,18.2,0,12.6,2.8,22.63,12.14,30.1,28,11.66,24.27,14.93,56,9.8,95.2-6.07,46.67-24.04,95.9-53.9,147.7-17.27,29.4-32.67,50.87-46.2,64.4l-4.2,4.9v3.5c0,14.47,1.4,31.04,4.2,49.7,4.66,32.67,11.66,58.34,21,77,11.2,22.4,25.9,34.53,44.1,36.4,8.86,.46,17.15-3.74,24.85-12.6s13.88-20.65,18.55-35.35c4.66-14.7,8.51-29.16,11.55-43.4,3.03-14.23,5.25-27.88,6.65-40.95,0-4.66,2.21-7.58,6.65-8.75,4.43-1.16,8.63-.58,12.6,1.75,3.96,2.34,5.71,5.37,5.25,9.1-1.4,10.74-2.57,20.19-3.5,28.35-.94,8.17-2.69,18.2-5.25,30.1-2.57,11.9-5.25,22.29-8.05,31.15-2.8,8.87-6.77,17.97-11.9,27.3-5.14,9.33-10.74,16.91-16.8,22.75-6.07,5.83-13.42,10.5-22.05,14-8.64,3.5-18.09,4.78-28.35,3.85Zm-59.5-218.4c.46,0,2.1-2.1,4.9-6.3,26.13-39.66,45.5-75.6,58.1-107.8,21.46-53.66,28.23-100.56,20.3-140.7-2.8-14-6.77-23.8-11.9-29.4-3.74-4.2-7.7-5.13-11.9-2.8-14.94,7-28.7,42.94-41.3,107.8-9.34,44.34-15.17,90.54-17.5,138.6-.47,3.74-.7,8.99-.7,15.75v24.85Z"/><path d="M3352.27,1457.24c-2.8,6.07-8.75,16.34-17.85,30.8-9.1,14.47-22.99,32.2-41.65,53.2-18.67,21-37.1,37.1-55.3,48.3-27.07,15.4-50.29,19.01-69.65,10.85-19.37-8.17-33.25-26.95-41.65-56.35-3.73-13.53-5.6-28-5.6-43.4,0-23.33,4.67-45.26,14-65.8,12.13-26.13,28.7-44.68,49.7-55.65,21-10.96,40.13-11.31,57.4-1.05,5.13,3.27,9.8,7.47,14,12.6,4.2,5.14,7.35,10.74,9.45,16.8,2.1,6.07,3.61,12.37,4.55,18.9,.93,6.54,.46,12.6-1.4,18.2-3.27,21-14.59,40.25-33.95,57.75-19.37,17.5-40.95,30.22-64.75,38.15,1.4,7.94,3.5,14.94,6.3,21,4.66,9.34,13.06,14.24,25.2,14.7,12.13,.47,22.16-2.1,30.1-7.7,17.73-9.8,36.28-25.9,55.65-48.3,19.36-22.4,36.51-45.03,51.45-67.9,1.86-5.6,5.36-7.46,10.5-5.6,5.13,1.87,6.3,5.37,3.5,10.5Zm-114.1,7c4.66-9.33,5.01-18.9,1.05-28.7-3.97-9.8-11.32-13.76-22.05-11.9-12.6,1.87-23.57,10.97-32.9,27.3-3.74,6.54-7,14.47-9.8,23.8-5.14,16.34-7.24,33.14-6.3,50.4v.7c15.4-7.46,29.51-16.8,42.35-28,12.83-11.2,22.05-22.4,27.65-33.6Z"/></g><g><path d="M1069.77,1790.63l16.5,4.3c.26,3.39,.39,6.32,.39,8.79,0,12.96-4.69,23.31-14.06,31.05-9.38,7.75-21.94,11.62-37.7,11.62-39.52,0-59.28-22.23-59.28-66.7,0-21.09,5.76-38.2,17.29-51.32,11.52-13.12,26.53-19.68,45.02-19.68,28.84,0,43.26,13.87,43.26,41.6l-16.6,7.62c.2-3.91,.29-6.93,.29-9.08,0-19.66-7.88-29.49-23.63-29.49-16.67,0-25,20.87-25,62.6,0,35.87,9.31,53.81,27.93,53.81,7.68,0,14.08-3.06,19.19-9.18,5.11-6.12,7.67-13.77,7.67-22.95,0-2.93-.42-7.26-1.27-12.99Z"/><path d="M1241.5,1710.84v89.45c0,30.66-16.96,46-50.88,46s-50.68-15.33-50.68-46v-89.45h38.67v90.63c0,11.72,1.68,19.73,5.03,24.02,3.35,4.3,9.55,6.45,18.6,6.45,17.51,0,26.27-10.55,26.27-31.64v-89.45h12.99Z"/><path d="M1302.5,1844.14v-133.3h57.52c32.62,0,48.93,13.05,48.93,39.16s-18.13,39.55-54.39,39.55h-13.38v54.59h-38.67Zm38.67-66.89h8.69c14.06,0,21.09-9.31,21.09-27.93,0-17.45-7.03-26.17-21.09-26.17h-8.69v54.1Z"/><path d="M1550.22,1790.63l16.5,4.3c.26,3.39,.39,6.32,.39,8.79,0,12.96-4.69,23.31-14.06,31.05-9.38,7.75-21.94,11.62-37.7,11.62-39.52,0-59.28-22.23-59.28-66.7,0-21.09,5.76-38.2,17.29-51.32,11.52-13.12,26.53-19.68,45.02-19.68,28.84,0,43.26,13.87,43.26,41.6l-16.6,7.62c.2-3.91,.29-6.93,.29-9.08,0-19.66-7.88-29.49-23.63-29.49-16.67,0-25,20.87-25,62.6,0,35.87,9.31,53.81,27.93,53.81,7.68,0,14.08-3.06,19.19-9.18,5.11-6.12,7.67-13.77,7.67-22.95,0-2.93-.42-7.26-1.27-12.99Z"/><path d="M1682.3,1710.84l37.11,133.3h-38.87l-7.91-28.91h-40.14l-8.5,28.91h-15.14l39.45-133.3h33.98Zm-46,91.02h32.71l-15.72-59.08-16.99,59.08Z"/><path d="M1872.5,1710.84l-33.3,42.09,49.12,91.21h-43.07l-31.25-58.4-5.57,6.25v52.15h-38.67v-133.3h38.67v59.38l45.9-59.38h18.16Z"/><path d="M2024.61,1710.84v13.38h-47.75v40.33h40.14v13.38h-40.14v52.83h55.86v13.38h-94.53v-133.3h86.43Z"/><path d="M2084.82,1844.14v-133.3h57.32c14.91,0,26.82,3.14,35.74,9.42,8.92,6.28,13.38,14.7,13.38,25.24,0,16.15-9.57,26.66-28.71,31.54,9.83,3.65,16.19,7.65,19.09,12.01,2.9,4.36,4.87,12.83,5.91,25.39,1.24,14.97,3.74,24.87,7.52,29.69h-41.99c-2.67-6.18-4-13.9-4-23.14l-.2-7.91-.2-9.96c0-15.36-6.19-23.05-18.55-23.05h-6.64v64.06h-38.67Zm38.67-75.1h7.81c14.65,0,21.97-7.65,21.97-22.95s-7.32-22.95-21.97-22.95h-7.81v45.9Z"/><path d="M2344.36,1710.84l-32.52,84.08v49.22h-38.67v-49.22l-35.94-84.08h40.14l27.15,64.26,24.41-64.26h15.43Z"/></g><g><path class="i" d="M5686.62,619.34c-6.57,2.62-13.13,5.59-19.67,8.91-25.38,12.89-49.22,28.81-74.47,45.67-11.46,7.65-23.31,15.57-35.29,23.15-26.4,16.71-60.69,32.56-96.54,44.62-27.65,9.3-68.67,20.46-107.03,20.77-1.23,.01-2.46,.02-3.7,.02-70.76,0-136.15-16.74-194.34-49.74-.13-.07-.26-.15-.4-.23,.33,.31,.66,.63,.98,.96,9.58,9.76,43.17,46.02,72.97,103.06,13.73,26.29,24.72,53.3,32.67,80.3,9.36,31.81,14.55,63.86,15.43,95.28,.36,12.68,1.59,18.85,2.4,21.62,1.69,.25,4.59,.5,9.39,.5,3.31,0,7.28-.11,12.88-.36,85.6-3.8,169.77-4.58,269.81-4.58,18.5,0,37.31,.03,55.5,.05,18.16,.02,36.95,.05,55.4,.05,12.69,0,16.27-1.19,17.03-1.53,2.53-2.26,8.06-13.64,12.52-22.8,1.35-2.77,2.74-5.63,4.26-8.71,23.6-64.01,35.27-105.81,56.67-191.88-15.25-1.79-32.27-4.9-46.78-10.27-19.78-7.33-36.36-20.56-47.96-38.27-11.35-17.33-16.96-38.08-15.8-58.42,1.22-21.36,9.5-41.35,24.04-58.16Zm-271.93,386.69c-5.06-123.02-36.88-213.58-28.29-218.09,12.1-6.35,16.67,5.87,19.56,14.51,14.24,42.56,30.54,183.14,8.73,203.58Zm158.24-24.96c-.82,11.09-11.54-7.93-12.74-15.53-4.42-28.12,9.58-198.41,35.72-212.54,8.28-4.48-12.12,80.93-22.98,228.07Z"/><path class="i" d="M5787.5,649.68h0c-.25,0-.52,0-.78,.01-12.33,.41-22.77,3.29-29.41,8.09-4.16,3.01-8.97,8.07-9.18,20.55-.12,6.9,1.9,12.23,6.35,16.75,7.2,7.33,20.17,12.33,36.79,14.43,1.61-8.11,3.11-17.66,3.74-27.27,1.46-22.2-2.79-30.9-4.09-32.14-.2-.08-1.17-.43-3.42-.43Z"/><path class="i" d="M5377.52,554.11c-2.27,.53-4.55,.78-6.8,.78-12.03,0-23.2-7.27-27.83-18.84-2.44-6.08-9.64-23.64-13.69-31.8-14.35-28.96-43.96-47.67-75.43-47.67-22.1,0-41.68,9.22-55.14,25.96-12.91,16.05-19.12,33.72-16.61,47.27,1.97,10.66,9.24,19.55,22.23,27.18,3.57,1.92,23.78,11.9,27.37,13.54,22.2,9.22,46.82,14.89,75.27,17.33,13.53,1.16,25.58,1.73,36.85,1.73,37.94,0,68.43-6.5,95.96-20.45,24.08-12.2,47.85-26.65,68.82-39.39,14.04-8.53,28.58-17.16,43.65-25.5-52.97-20.49-100.2-54.9-141.06-102.88-9.49-11.14-18.16-22.75-26.54-33.99-7.73-10.35-15.02-20.12-22.76-29.35-19.91-23.73-39.92-34.78-62.98-34.78-.34,0-.69,0-1.03,0-18.61,.26-29.4,7.55-36.1,24.36-2.59,6.52-4.15,13.49-5.07,19.96,45.86,5.98,83.62,29.37,109.23,67.67,10.45,15.62,18.79,33.56,24.8,53.33,5.23,17.2,8.59,35.39,10,54.06,1.11,14.76-8.71,28.13-23.13,31.48Z"/><path d="M5852.17,512.25c-23.05-12.09-47.26-19.63-72.32-24.81-10.63-2.2-21.98-.79-34.75-7.27,35.62-17.42,61.42-42.58,70.32-82.66,8.59-38.66,6.25-76.61-17-109.46-23.07-32.59-61.63-51.86-94.21-51.86-15.62,0-29.86,4.43-40.36,13.95,1.6-.06,3.19-.1,4.76-.1,31.97,0,58.63,13.15,79.74,38.97,17.75,21.71,23.84,47.39,16.14,75.82-7.56,27.9-26.48,41.56-51.55,46.21-10.25,1.9-20.74,3.72-31.09,3.72-1.12,0-2.24-.02-3.35-.07-59.66-2.39-114.6-20.51-163-59.88-30.86-25.11-55.33-57.52-83.54-85.61-31.06-30.94-66.69-52.65-106.8-52.66-9.34,0-18.92,1.18-28.75,3.69-88.99,22.75-94.34,100.21-71.15,153.65,.87-1.21-8.73-99.52,72.11-100.64,.48,0,.97-.01,1.45-.01,35.27,0,62.95,18.08,85.96,45.5,17.09,20.36,31.95,42.95,49.17,63.17,54.04,63.47,120.21,101.91,199.58,112.09,1.99,.26,3.97,.65,6.15,2.05-40.62,15.35-78.37,36.71-115.59,59.33-23.29,14.15-46.58,28.22-70.84,40.52-35.38,17.93-72.13,23.69-109.53,23.69-13.07,0-26.21-.7-39.41-1.84-28.85-2.48-57.3-8.29-84.53-19.64-2.4-1-27.65-13.45-30.46-15.08-51.33-29.95-44.81-81.07-14.08-119.28,20.29-25.23,49.19-37.16,78.52-37.16,40.42,0,81.65,22.65,102.31,64.35,5.46,11.01,14.65,33.96,14.65,33.96-4.64-61.67-35.39-137.04-118.43-147.62-2.77-.35-12.62-1.85-24.83-1.85-7.25,0-15.33,.53-23.26,2.14-27.46,4.44-51.73,16.81-73.44,35.7-54.02,47.02-71.56,134.82-38.83,196.73,18.42,34.83,46.38,58.48,78.43,76.66,56.26,31.91,116.96,45.84,179.54,45.84,1.15,0,2.3,0,3.45-.01,57.98-.47,140-30.5,187.78-60.75,37.3-23.61,72.97-50.29,112.21-70.22,34.65-17.6,70.07-26.67,106.07-26.67,22.48,0,45.19,3.53,68.1,10.73,38.34,12.04,60.68,40.88,57.02,84.48-1.86,22.14-15.3,41.75-29.62,56.7,8.77-71.64,2.72-126.16-53.41-126.16-8.7,0-18.59,1.31-29.82,4.06-106.5,26.14-92.61,120.06-34.96,141.41,22.3,8.26,53.82,10.2,67.42,10.66,3.4,.11,5.8,3.67,4.92,7.24-25.81,104.66-37.95,150.87-64.94,223.95-.07,.2-.16,.4-.25,.59-20.35,41.14-21.45,50.9-61.26,50.9-36.95,0-73.94-.1-110.9-.1-89.55,0-179.07,.58-268.48,4.55-5.15,.23-9.88,.39-14.21,.39-29.55,0-40.55-7.45-41.79-51.28-3.47-123.67-78.23-223.59-112.48-258.46-1.09-1.11-2.35-1.59-3.56-1.59-3.45,0-6.58,3.87-4.86,8.11,21.99,54.28,79.6,206.21,64.95,274.65-17.08,79.79,44.32,94.98,73.69,96.69,6.1,.35,18.76,.51,35.97,.51,95.03,0,329.2-4.62,369.16-5.18,82.81-1.16,105.61-19.1,128.21-107.55,17.18-67.24,32.67-135.14,45.35-203.59,2.89-15.62,5.63-31.02,7.93-45.9,36.99-11.5,89.99-43.98,79.78-135.01-3.37-30.07-24.35-74.61-79.21-103.37Zm-36.48,224.29c-.67,2.43-2.73,4.08-5.05,4.09-.26,0-.52,0-.78,0-57.72,0-92.39-24.33-91.74-62.8,.71-41.86,34.33-57,67.58-58.11,.6-.02,1.2-.03,1.78-.03,57.35,0,34,95.85,28.2,116.86Z"/><g><path class="h" d="M5961.19,612.28c-2.46-21.9-11.43-45.22-25.27-65.65-16.96-25.04-40.45-45.54-69.82-60.94-15.76-8.26-32.79-15.05-51.55-20.54,14.86-17.38,25-37.93,30.15-61.13,11.5-51.77,4.16-96.62-21.8-133.3-13.73-19.4-32.36-35.74-53.86-47.26-21.08-11.29-43.5-17.26-64.83-17.26-23.92,0-44.85,7.52-60.52,21.74-9.34,8.48-12.38,21.9-7.61,33.58,4.63,11.31,15.62,18.64,27.76,18.64,.4,0,.8,0,1.2-.02,1.2-.05,2.4-.07,3.57-.07,22.96,0,40.92,8.88,56.51,27.96,11.97,14.64,15.37,30.66,10.41,48.99-3.92,14.47-12.05,21.59-28.07,24.56-9.13,1.7-17.95,3.22-25.61,3.22-.74,0-1.46-.01-2.15-.04-56.54-2.26-104.06-19.66-145.27-53.18-17.65-14.35-33.31-31.69-49.89-50.05-10.03-11.1-20.4-22.58-31.4-33.54-18.7-18.62-37.97-33.18-57.29-43.26-23.04-12.03-46.82-18.13-70.68-18.14-12,0-24.18,1.56-36.18,4.62-55.12,14.09-80.67,45.58-92.4,69.52-9.52,19.44-13.86,41.25-12.89,64.83,.34,8.27,1.36,16.64,3.01,24.98-27.19,6.61-52.58,20.07-75.62,40.12-31.14,27.11-53.05,66.03-61.68,109.58-8.69,43.86-3,87.83,16.03,123.81,16.99,32.12,42.18,58.63,76.75,80.67-3.5-1.17-7.2-1.78-10.98-1.78-11.69,0-22.62,5.86-29.23,15.68-6.68,9.92-7.97,22.51-3.43,33.69,10.42,25.71,30.14,76.67,45.19,129.03,22.76,79.22,21.19,114.24,18.23,128.07-4.01,18.74-4.68,36.13-1.98,51.7,2.64,15.23,8.47,28.85,17.32,40.46,10.93,14.35,26.04,25.21,44.9,32.28,15.9,5.96,31.1,7.9,41.05,8.47,6.45,.37,18.78,.56,37.71,.56,73.82,0,231.81-2.79,316.69-4.28,24.53-.43,43.91-.77,52.89-.9,43.83-.62,78.53-5.61,105.44-27.97,26.67-22.17,39.85-56.87,51.42-102.15,18.86-73.8,33.83-141.04,45.78-205.56,2.07-11.16,3.78-20.73,5.25-29.4,21.96-9.67,40.5-23.63,54.27-41.01,24.34-30.71,33.93-70.85,28.49-119.31Zm-109.59,138.36c-2.3,14.88-5.03,30.28-7.93,45.9-12.67,68.45-28.16,136.35-45.35,203.59-22.61,88.45-45.4,106.39-128.21,107.55-39.96,.56-274.13,5.18-369.16,5.18-17.21,0-29.87-.15-35.97-.51-29.38-1.71-90.77-16.9-73.69-96.69,14.65-68.44-42.96-220.37-64.95-274.65-1.72-4.24,1.42-8.11,4.86-8.11,1.21,0,2.47,.48,3.56,1.59,34.25,34.87,109.01,134.78,112.48,258.46,1.23,43.82,12.23,51.28,41.79,51.28,4.33,0,9.06-.16,14.21-.39,89.41-3.97,178.94-4.55,268.48-4.55,36.96,0,73.95,.1,110.9,.1,39.81,0,40.92-9.75,61.26-50.9,.09-.19,.18-.39,.25-.59,27-73.08,39.14-119.29,64.94-223.95,.88-3.58-1.52-7.13-4.92-7.24-13.6-.46-45.12-2.4-67.42-10.66-57.65-21.35-71.54-115.27,34.96-141.41,11.23-2.76,21.12-4.06,29.82-4.06,56.12,0,62.18,54.52,53.41,126.16,14.32-14.95,27.76-34.56,29.62-56.7,3.66-43.6-18.68-72.44-57.02-84.48-22.91-7.2-45.61-10.73-68.1-10.73-36,0-71.42,9.07-106.07,26.67-39.24,19.93-74.92,46.61-112.21,70.22-47.78,30.25-129.8,60.28-187.78,60.75-1.15,0-2.3,.01-3.45,.01-62.58,0-123.28-13.92-179.54-45.84-32.05-18.18-60.01-41.83-78.43-76.66-32.74-61.91-15.19-149.71,38.83-196.73,21.71-18.9,45.97-31.27,73.44-35.7,7.93-1.61,16.01-2.14,23.26-2.14,12.21,0,22.06,1.5,24.83,1.85,83.04,10.58,113.78,85.96,118.43,147.62,0,0-9.2-22.95-14.65-33.96-20.66-41.7-61.89-64.35-102.31-64.35-29.33,0-58.23,11.93-78.52,37.16-30.73,38.22-37.24,89.34,14.08,119.28,2.8,1.63,28.06,14.08,30.46,15.08,27.22,11.35,55.68,17.17,84.53,19.64,13.2,1.13,26.34,1.84,39.41,1.84,37.4,0,74.14-5.76,109.53-23.69,24.26-12.29,47.54-26.36,70.84-40.52,37.22-22.62,74.96-43.98,115.59-59.33-2.17-1.4-4.15-1.79-6.15-2.05-79.37-10.17-145.54-48.62-199.58-112.09-17.22-20.22-32.08-42.81-49.17-63.17-23.01-27.42-50.69-45.5-85.96-45.5-.48,0-.97,0-1.45,.01-80.84,1.13-71.24,99.43-72.11,100.64-23.19-53.44-17.83-130.9,71.15-153.65,9.83-2.51,19.41-3.69,28.75-3.69,40.11,0,75.73,21.72,106.8,52.66,28.21,28.09,52.67,60.51,83.54,85.61,48.4,39.37,103.34,57.49,163,59.88,1.12,.04,2.23,.07,3.35,.07,10.35,0,20.84-1.82,31.09-3.72,25.07-4.66,43.99-18.32,51.55-46.21,7.7-28.43,1.61-54.11-16.14-75.82-21.11-25.82-47.77-38.97-79.74-38.97-1.57,0-3.16,.03-4.76,.1,10.49-9.52,24.74-13.95,40.36-13.95,32.57,0,71.14,19.27,94.21,51.86,23.25,32.85,25.59,70.8,17,109.46-8.9,40.08-34.7,65.24-70.32,82.66,12.77,6.48,24.12,5.07,34.75,7.27,25.06,5.18,49.26,12.73,72.32,24.81,54.85,28.76,75.83,73.3,79.21,103.37,10.21,91.03-42.79,123.51-79.78,135.01Zm-164.98-131.29c-3.29,1.31-6.57,2.71-9.85,4.19,3.28-1.48,6.56-2.88,9.85-4.19h0Z"/><path class="h" d="M5787.49,619.68c-.58,0-1.18,.01-1.78,.03-33.26,1.11-66.87,16.25-67.58,58.11-.65,38.47,34.01,62.8,91.74,62.8,.26,0,.52,0,.78,0,2.33,0,4.38-1.66,5.05-4.09,5.8-21.01,29.15-116.87-28.2-116.86Z"/></g><path d="M5595.92,753c-26.14,14.13-40.14,184.43-35.72,212.54,1.19,7.6,11.92,26.62,12.74,15.53,10.86-147.15,31.26-232.55,22.98-228.07Z"/><path d="M5386.41,787.94c-8.59,4.51,23.22,95.08,28.29,218.09,21.81-20.44,5.52-161.03-8.73-203.58-2.89-8.64-7.46-20.86-19.56-14.51Z"/></g><g><path class="h" d="M4010.79,1670.53h-30.8c-26.14-1.87-49.24-7.94-69.3-18.2-13.07-6.07-24.74-14-35-23.8-15.4-14.47-26.84-31.5-34.3-51.1-12.13-32.2-13.06-64.4-2.8-96.6,10.73-33.13,31.03-57.16,60.9-72.1,15.86-7.93,32.66-11.9,50.4-11.9s32.66,3.5,46.2,10.5c7.46,3.74,14.46,8.64,21,14.7,19.6,19.14,25.9,42.24,18.9,69.3-.94,5.14-3.04,10.74-6.3,16.8-11.2,22.87-28.7,36.87-52.5,42-2.8,.47-6.89,.7-12.25,.7s-9.45-.23-12.25-.7c-13.54-3.26-23.57-9.56-30.1-18.9-7-10.73-8.64-21.7-4.9-32.9,1.86-5.6,6.3-12.36,13.3-20.3,8.4-9.33,15.4-15.4,21-18.2,2.33-.93,4.43-1.4,6.3-1.4s3.5,.24,4.9,.7c4.2,2.8,5.13,6.77,2.8,11.9-.94,1.87-3.74,6.07-8.4,12.6-10.74,16.8-15.87,27.07-15.4,30.8,.93,4.67,4.2,8.4,9.8,11.2,7,3.27,15.16,3.5,24.5,.7,13.53-4.66,24.03-14,31.5-28,6.53-13.06,7.7-25.9,3.5-38.5-3.74-12.13-12.14-21.46-25.2-28-19.14-9.33-39.44-10.26-60.9-2.8-12.6,4.2-23.8,11.2-33.6,21-20.54,20.07-30.34,45.74-29.4,77,.46,12.6,2.56,24.04,6.3,34.3,2.8,7,6.06,13.53,9.8,19.6,5.6,8.86,12.83,16.8,21.7,23.8,28,22.86,64.16,31.5,108.5,25.9,24.73-2.8,47.36-11.2,67.9-25.2,22.4-14.94,35.93-33.37,40.6-55.3,1.86-9.33,1.86-19.13,0-29.4-5.6-30.8-22.87-61.83-51.8-93.1-13.07-14-35.47-33.13-67.2-57.4-14.94-11.66-25.9-20.53-32.9-26.6-11.2-9.33-20.07-18.2-26.6-26.6-15.87-19.6-25.44-40.36-28.7-62.3-1.4-8.86-1.64-17.96-.7-27.3,1.4-19.13,7-38.03,16.8-56.7,16.8-33.13,39.9-60.2,69.3-81.2,20.53-14.93,41.06-24.03,61.6-27.3,7-.93,14-1.16,21-.7,11.66,.47,22.4,3.27,32.2,8.4,9.8,5.14,18.55,11.79,26.25,19.95,7.7,8.17,14,18.09,18.9,29.75,4.9,11.67,8.28,24.5,10.15,38.5,3.26,24.27,1.4,49.24-5.6,74.9-7.94,28.94-19.37,52.97-34.3,72.1-5.14,6.54-10.27,11.9-15.4,16.1-8.87,6.54-17.04,9.8-24.5,9.8s-13.07-2.45-16.8-7.35c-3.74-4.9-4.9-11.08-3.5-18.55,.93-4.66,5.83-18.43,14.7-41.3,9.33-24.26,15.4-47.83,18.2-70.7,.46-3.26,.58-8.05,.35-14.35-.24-6.3-.59-10.85-1.05-13.65-3.27-22.4-11.2-34.53-23.8-36.4-7-.93-15.87,1.4-26.6,7-10.74,5.6-21.47,13.77-32.2,24.5-16.8,16.34-29.4,33.6-37.8,51.8-9.34,20.54-10.04,38.97-2.1,55.3,6.53,13.54,23.8,31.04,51.8,52.5,20.06,15.4,34.3,26.84,42.7,34.3,27.53,23.34,49.7,47.14,66.5,71.4,19.13,28.47,30.56,57.17,34.3,86.1,1.86,12.14,1.86,24.5,0,37.1-6.07,38.26-27.3,68.83-63.7,91.7-9.34,6.06-19.14,10.96-29.4,14.7-21,8.4-43.17,13.53-66.5,15.4Z"/><path class="h" d="M4422.38,1649.83c-24.74-2.34-45.74-17.04-63-44.1-5.14-7.93-9.57-16.8-13.3-26.6-1.4-4.2-2.1-6.53-2.1-7l-2.1,2.8c-4.67,11.2-10.74,21.7-18.2,31.5-11.67,15.4-25.44,23.8-41.3,25.2-13.54,1.4-26.37-2.57-38.5-11.9-7-5.14-13.77-11.9-20.3-20.3-12.6-16.8-22.17-38.5-28.7-65.1-3.26-13.53-5.13-28.23-5.6-44.1-.46-15.4,1.17-26.83,4.9-34.3,3.26-6.53,7.7-11.08,13.3-13.65,5.6-2.56,11.43-2.91,17.5-1.05,9.8,3.27,16.33,12.14,19.6,26.6,.46,3.74,1.63,13.77,3.5,30.1,2.8,34.07,7.46,59.27,14,75.6,4.66,13.07,10.73,21.47,18.2,25.2,1.86,.94,3.96,1.4,6.3,1.4s4.66-.7,7-2.1c8.4-4.2,17.26-14.93,26.6-32.2,5.13-9.33,8.63-16.33,10.5-21,1.86-4.66,2.8-7.46,2.8-8.4s-.47-3.96-1.4-9.1c-2.8-12.6-4.67-24.03-5.6-34.3-.94-4.66-1.4-11.9-1.4-21.7s.46-16.33,1.4-19.6c1.86-11.66,6.53-19.36,14-23.1,1.86-.93,4.2-1.4,7-1.4s5.36,.47,7.7,1.4c5.6,2.8,9.8,8.4,12.6,16.8,1.86,6.07,4.2,21.24,7,45.5,4.2,35.47,9.56,62.54,16.1,81.2,5.13,16.8,11.9,28.94,20.3,36.4,1.86,1.4,4.2,2.8,7,4.2,2.8,1.4,5.13,2.33,7,2.8,4.66,.93,9.56,.93,14.7,0,10.26-2.34,20.53-7.7,30.8-16.1,2.33-1.86,5.36-4.66,9.1-8.4,12.13-12.13,22.16-26.6,30.1-43.4,7-14,10.03-21.23,9.1-21.7l-6.3-2.1c-22.87-6.06-40.84-18.9-53.9-38.5-16.34-25.2-21.94-51.33-16.8-78.4,2.8-13.06,8.05-23.91,15.75-32.55,7.7-8.63,16.45-13.88,26.25-15.75,4.66-.46,9.1-.46,13.3,0,7,1.4,13.53,4.44,19.6,9.1,18.66,14,30.1,38.04,34.3,72.1,2.33,19.14,2.1,38.74-.7,58.8-.94,5.14-1.4,8.17-1.4,9.1v1.4h2.1c12.6-1.86,27.3-7.46,44.1-16.8,1.4-.93,3.03-1.86,4.9-2.8,7.46-4.66,12.83-4.2,16.1,1.4,2.8,4.67,1.86,8.4-2.8,11.2-5.14,3.74-10.5,7-16.1,9.8-16.34,7.94-32.9,12.84-49.7,14.7l-3.5,.7-3.5,10.5c-11.2,33.14-26.14,59.5-44.8,79.1-6.54,7-13.3,12.83-20.3,17.5-17.74,11.66-35.47,16.8-53.2,15.4Zm100.8-142.1c.93,0,1.86-1.63,2.8-4.9,7.46-33.6,7-63.23-1.4-88.9-1.87-6.53-4.44-12.36-7.7-17.5-3.27-5.13-7-9.21-11.2-12.25-4.2-3.03-8.4-4.78-12.6-5.25-5.6-.93-11.2,1.17-16.8,6.3-7.94,7.47-12.72,18.55-14.35,33.25-1.64,14.7,.35,28.82,5.95,42.35,7.46,18.67,19.83,32.44,37.1,41.3,8.86,4.2,14.93,6.07,18.2,5.6Z"/><path class="h" d="M4810.18,1491.63c-2.8,6.07-8.75,16.34-17.85,30.8-9.1,14.47-22.99,32.2-41.65,53.2-18.67,21-37.1,37.1-55.3,48.3-27.07,15.4-50.29,19.01-69.65,10.85-19.37-8.17-33.25-26.95-41.65-56.35-3.73-13.53-5.6-28-5.6-43.4,0-23.33,4.67-45.26,14-65.8,12.13-26.13,28.7-44.68,49.7-55.65,21-10.96,40.13-11.31,57.4-1.05,5.13,3.27,9.8,7.47,14,12.6,4.2,5.14,7.35,10.74,9.45,16.8,2.1,6.07,3.61,12.37,4.55,18.9,.93,6.54,.46,12.6-1.4,18.2-3.27,21-14.59,40.25-33.95,57.75-19.37,17.5-40.95,30.22-64.75,38.15,1.4,7.94,3.5,14.94,6.3,21,4.66,9.34,13.06,14.24,25.2,14.7,12.13,.47,22.16-2.1,30.1-7.7,17.73-9.8,36.28-25.9,55.65-48.3,19.36-22.4,36.51-45.03,51.45-67.9,1.86-5.6,5.36-7.46,10.5-5.6,5.13,1.87,6.3,5.37,3.5,10.5Zm-114.1,7c4.66-9.33,5.01-18.9,1.05-28.7-3.97-9.8-11.32-13.76-22.05-11.9-12.6,1.87-23.57,10.97-32.9,27.3-3.74,6.54-7,14.47-9.8,23.8-5.14,16.34-7.24,33.14-6.3,50.4v.7c15.4-7.46,29.51-16.8,42.35-28,12.83-11.2,22.05-22.4,27.65-33.6Z"/><path class="h" d="M5009.67,1491.63c-2.8,6.07-8.75,16.34-17.85,30.8-9.1,14.47-22.99,32.2-41.65,53.2-18.67,21-37.1,37.1-55.3,48.3-27.07,15.4-50.29,19.01-69.65,10.85-19.37-8.17-33.25-26.95-41.65-56.35-3.73-13.53-5.6-28-5.6-43.4,0-23.33,4.67-45.26,14-65.8,12.13-26.13,28.7-44.68,49.7-55.65,21-10.96,40.13-11.31,57.4-1.05,5.13,3.27,9.8,7.47,14,12.6,4.2,5.14,7.35,10.74,9.45,16.8,2.1,6.07,3.61,12.37,4.55,18.9,.93,6.54,.46,12.6-1.4,18.2-3.27,21-14.59,40.25-33.95,57.75-19.37,17.5-40.95,30.22-64.75,38.15,1.4,7.94,3.5,14.94,6.3,21,4.66,9.34,13.06,14.24,25.2,14.7,12.13,.47,22.16-2.1,30.1-7.7,17.73-9.8,36.28-25.9,55.65-48.3,19.36-22.4,36.51-45.03,51.45-67.9,1.86-5.6,5.36-7.46,10.5-5.6,5.13,1.87,6.3,5.37,3.5,10.5Zm-114.1,7c4.66-9.33,5.01-18.9,1.05-28.7-3.97-9.8-11.32-13.76-22.05-11.9-12.6,1.87-23.57,10.97-32.9,27.3-3.74,6.54-7,14.47-9.8,23.8-5.14,16.34-7.24,33.14-6.3,50.4v.7c15.4-7.46,29.51-16.8,42.35-28,12.83-11.2,22.05-22.4,27.65-33.6Z"/><path class="h" d="M5104.16,1633.73c-8.87-.94-17.5-3.27-25.9-7-12.6-6.07-24.74-16.45-36.4-31.15-11.67-14.7-21.47-32.08-29.4-52.15-20.54-52.26-28.93-124.6-25.2-217,.93-23.8,2.33-45.5,4.2-65.1,.93-6.06,1.16-9.33,.7-9.8-.94-.93-8.86-1.4-23.8-1.4s-26.83,.24-35.7,.7c-43.86,3.27-75.83,10.04-95.9,20.3-10.26,5.6-18.78,13.19-25.55,22.75-6.76,9.57-12.95,14.35-18.55,14.35-1.4,0-2.8-.23-4.2-.7-3.73-1.86-6.3-5.6-7.7-11.2-2.33-8.4,.24-18.2,7.7-29.4,7.47-11.66,19.14-21.46,35-29.4,25.2-12.6,61.6-20.3,109.2-23.1,5.6-.46,15.17-.7,28.7-.7s22.99,.12,28.35,.35c5.36,.24,8.28,.24,8.75,0,.46-.23,.93-.81,1.4-1.75,.93-6.53,3.73-14.46,8.4-23.8,3.26-7,6.76-12.36,10.5-16.1,9.33-8.86,19.13-10.73,29.4-5.6,4.2,2.34,7.46,6.07,9.8,11.2,4.2,8.4,6.3,20.77,6.3,37.1,0,3.74,.23,5.72,.7,5.95,.46,.24,3.5,.82,9.1,1.75,10.26,1.4,26.36,3.74,48.3,7,27.06,4.2,48.3,7.24,63.7,9.1,5.6,.47,8.63,.7,9.1,.7s.93-.93,1.4-2.8c2.33-13.53,12.13-25.9,29.4-37.1,16.8-11.2,36.4-17.5,58.8-18.9,21-1.4,37.1,3.74,48.3,15.4,5.6,6.07,8.86,13.07,9.8,21,.93,7-.24,13.77-3.5,20.3-3.74,7.47-9.34,13.77-16.8,18.9-14.47,9.34-34.07,15.17-58.8,17.5-22.4,2.34-52.04,1.87-88.9-1.4-14-1.4-39.2-4.66-75.6-9.8-24.27-3.26-36.64-4.66-37.1-4.2s-.7,3.5-.7,9.1c-.47,7-1.87,22.87-4.2,47.6-2.8,32.2-4.44,59.74-4.9,82.6-.47,27.54,0,48.54,1.4,63,1.86,30.34,5.83,56.24,11.9,77.7,8.86,30.8,21.46,49.7,37.8,56.7,5.6,2.34,10.85,3.74,15.75,4.2,4.9,.47,9.56-.58,14-3.15,4.43-2.56,8.4-5.25,11.9-8.05s6.88-7.23,10.15-13.3c3.26-6.06,6.06-11.2,8.4-15.4,2.33-4.2,5.01-10.5,8.05-18.9,3.03-8.4,5.36-14.93,7-19.6,1.63-4.66,3.85-11.43,6.65-20.3,1.86-5.6,3.03-9.8,3.5-12.6,2.8-5.13,6.88-8.4,12.25-9.8,5.36-1.4,9.56-.11,12.6,3.85,3.03,3.97,3.15,9.69,.35,17.15-5.6,18.67-11.32,35.24-17.15,49.7-5.84,14.47-13.19,28.94-22.05,43.4-8.87,14.47-19.37,25.31-31.5,32.55-12.14,7.23-25.2,10.15-39.2,8.75Zm109.9-392c1.86,.47,9.68,.7,23.45,.7s24.15-.23,31.15-.7c5.6,0,10.26-.23,14-.7,8.4-.93,15.75-2.56,22.05-4.9,6.3-2.33,11.2-5.01,14.7-8.05,3.5-3.03,5.25-6.18,5.25-9.45,0-4.66-3.04-8.86-9.1-12.6-5.6-3.26-13.54-5.13-23.8-5.6-17.74-.93-35,3.74-51.8,14-9.34,5.6-17.04,12.6-23.1,21-2.8,3.74-3.74,5.84-2.8,6.3Z"/><path class="h" d="M5534.05,1313.13c-.47-3.73-2.45-7.23-5.95-10.5-3.5-3.26-7.7-5.48-12.6-6.65-4.9-1.16-9.8-1.4-14.7-.7-4.9,.7-9.69,2.92-14.35,6.65-4.67,3.74-7.94,8.87-9.8,15.4-4.67,12.6-4.79,26.49-.35,41.65,4.43,15.17,12.95,28.35,25.55,39.55,6.53,0,14.46,1.87,23.8,5.6,4.2,1.4,6.53,3.97,7,7.7,.46,3.74-2.57,5.84-9.1,6.3-10.27,0-20.07-2.33-29.4-7-14.47,2.34-25.09,11.55-31.85,27.65-6.77,16.1-8.99,34.54-6.65,55.3,2.33,20.77,8.4,39.79,18.2,57.05,8.86,16.8,20.41,29.05,34.65,36.75,14.23,7.7,27.18,8.05,38.85,1.05,10.26-6.06,17.5-15.63,21.7-28.7,4.2-13.06,5.6-26.36,4.2-39.9-.94-5.6-2.22-10.85-3.85-15.75-1.64-4.9-3.85-9.1-6.65-12.6s-5.95-5.83-9.45-7c-3.5-1.16-7.35-1.05-11.55,.35-4.67,1.87-5.72,7.59-3.15,17.15,2.56,9.57,2.68,15.05,.35,16.45-6.07,2.8-10.74-.93-14-11.2-6.07-17.73-1.87-34.76,12.6-51.1,7.46-8.86,17.26-16.1,29.4-21.7,.93-.46,3.15-1.4,6.65-2.8,3.5-1.4,6.18-2.56,8.05-3.5l7-3.5c2.8-1.4,5.25-2.91,7.35-4.55,2.1-1.63,3.85-3.38,5.25-5.25,6.53-7.46,7.81-16.33,3.85-26.6-3.97-10.26-11.55-14-22.75-11.2-3.27,.94-5.14-.23-5.6-3.5-.94-2.33,0-4.2,2.8-5.6,10.26-4.2,18.66-5.01,25.2-2.45,6.53,2.57,11.31,6.54,14.35,11.9,3.03,5.37,4.31,11.67,3.85,18.9-.47,7.24-2.8,13.65-7,19.25-1.87,2.34-4.09,4.44-6.65,6.3-2.57,1.87-5.6,3.85-9.1,5.95s-6.54,3.85-9.1,5.25c-2.57,1.4-6.19,3.15-10.85,5.25-4.67,2.1-7.94,3.62-9.8,4.55-8.87,4.2-16.45,9.8-22.75,16.8s-9.69,13.3-10.15,18.9c11.66-9.8,21.93-10.15,30.8-1.05,8.86,9.1,14.46,21.82,16.8,38.15,1.4,10.74,1.16,21.7-.7,32.9-1.87,11.2-6.07,22.4-12.6,33.6-6.54,11.2-14.94,20.07-25.2,26.6-16.8,11.2-35.82,12.6-57.05,4.2-21.24-8.4-38.15-24.96-50.75-49.7-10.74-21-16.91-43.4-18.55-67.2-1.63-23.8,2.8-44.8,13.3-63s26.71-28.23,48.65-30.1c-13.54-7-23.34-17.73-29.4-32.2-6.07-14.46-8.29-28.58-6.65-42.35,1.63-13.76,7.11-25.78,16.45-36.05,9.33-10.26,21.23-14.93,35.7-14,9.8,.94,18.78,4.55,26.95,10.85,8.16,6.3,12.71,13.65,13.65,22.05,.93,8.87-1.17,16.1-6.3,21.7-5.14,5.6-12.14,6.77-21,3.5-2.8-.93-3.74-2.8-2.8-5.6,.93-2.8,3.03-3.73,6.3-2.8,9.33,3.27,15.4,1.17,18.2-6.3,.93-2.8,1.16-5.83,.7-9.1Z"/><path class="h" d="M5968.63,1669.53h-30.8c-26.14-1.87-49.24-7.94-69.3-18.2-13.07-6.07-24.74-14-35-23.8-15.4-14.47-26.84-31.5-34.3-51.1-12.13-32.2-13.06-64.4-2.8-96.6,10.73-33.13,31.03-57.16,60.9-72.1,15.86-7.93,32.66-11.9,50.4-11.9s32.66,3.5,46.2,10.5c7.46,3.74,14.46,8.64,21,14.7,19.6,19.14,25.9,42.24,18.9,69.3-.94,5.14-3.04,10.74-6.3,16.8-11.2,22.87-28.7,36.87-52.5,42-2.8,.47-6.89,.7-12.25,.7s-9.45-.23-12.25-.7c-13.54-3.26-23.57-9.56-30.1-18.9-7-10.73-8.64-21.7-4.9-32.9,1.86-5.6,6.3-12.36,13.3-20.3,8.4-9.33,15.4-15.4,21-18.2,2.33-.93,4.43-1.4,6.3-1.4s3.5,.24,4.9,.7c4.2,2.8,5.13,6.77,2.8,11.9-.94,1.87-3.74,6.07-8.4,12.6-10.74,16.8-15.87,27.07-15.4,30.8,.93,4.67,4.2,8.4,9.8,11.2,7,3.27,15.16,3.5,24.5,.7,13.53-4.66,24.03-14,31.5-28,6.53-13.06,7.7-25.9,3.5-38.5-3.74-12.13-12.14-21.46-25.2-28-19.14-9.33-39.44-10.26-60.9-2.8-12.6,4.2-23.8,11.2-33.6,21-20.54,20.07-30.34,45.74-29.4,77,.46,12.6,2.56,24.04,6.3,34.3,2.8,7,6.06,13.53,9.8,19.6,5.6,8.86,12.83,16.8,21.7,23.8,28,22.86,64.16,31.5,108.5,25.9,24.73-2.8,47.36-11.2,67.9-25.2,22.4-14.94,35.93-33.37,40.6-55.3,1.86-9.33,1.86-19.13,0-29.4-5.6-30.8-22.87-61.83-51.8-93.1-13.07-14-35.47-33.13-67.2-57.4-14.94-11.66-25.9-20.53-32.9-26.6-11.2-9.33-20.07-18.2-26.6-26.6-15.87-19.6-25.44-40.36-28.7-62.3-1.4-8.86-1.64-17.96-.7-27.3,1.4-19.13,7-38.03,16.8-56.7,16.8-33.13,39.9-60.2,69.3-81.2,20.53-14.93,41.06-24.03,61.6-27.3,7-.93,14-1.16,21-.7,11.66,.47,22.4,3.27,32.2,8.4,9.8,5.14,18.55,11.79,26.25,19.95,7.7,8.17,14,18.09,18.9,29.75,4.9,11.67,8.28,24.5,10.15,38.5,3.26,24.27,1.4,49.24-5.6,74.9-7.94,28.94-19.37,52.97-34.3,72.1-5.14,6.54-10.27,11.9-15.4,16.1-8.87,6.54-17.04,9.8-24.5,9.8s-13.07-2.45-16.8-7.35c-3.74-4.9-4.9-11.08-3.5-18.55,.93-4.66,5.83-18.43,14.7-41.3,9.33-24.26,15.4-47.83,18.2-70.7,.46-3.26,.58-8.05,.35-14.35-.24-6.3-.59-10.85-1.05-13.65-3.27-22.4-11.2-34.53-23.8-36.4-7-.93-15.87,1.4-26.6,7-10.74,5.6-21.47,13.77-32.2,24.5-16.8,16.34-29.4,33.6-37.8,51.8-9.34,20.54-10.04,38.97-2.1,55.3,6.53,13.54,23.8,31.04,51.8,52.5,20.06,15.4,34.3,26.84,42.7,34.3,27.53,23.34,49.7,47.14,66.5,71.4,19.13,28.47,30.56,57.17,34.3,86.1,1.86,12.14,1.86,24.5,0,37.1-6.07,38.26-27.3,68.83-63.7,91.7-9.34,6.06-19.14,10.96-29.4,14.7-21,8.4-43.17,13.53-66.5,15.4Z"/><path class="h" d="M6171.62,1410.43c2.8-2.33,6.06-3.5,9.8-3.5,2.33,0,4.2,.47,5.6,1.4,4.66,2.34,7.93,6.77,9.8,13.3,1.4,6.54,1.4,19.84,0,39.9-.94,9.8-1.64,18.2-2.1,25.2-.94,9.8-1.64,20.3-2.1,31.5-5.14,60.2,.93,89.6,18.2,88.2,9.8-.46,21.93-14.23,36.4-41.3,14.46-27.06,26.83-53.66,37.1-79.8,1.4-4.66,5.13-5.83,11.2-3.5,6.06,1.87,7.46,6.07,4.2,12.6-19.6,47.6-37.45,82.95-53.55,106.05-16.1,23.1-33.72,34.41-52.85,33.95-20.54-.94-34.07-12.6-40.6-35-3.73-11.66-5.71-31.03-5.95-58.1-.23-27.06,1.75-53.9,5.95-80.5,4.2-26.6,10.5-43.4,18.9-50.4Zm-12.6-49.7c0-7,2.56-12.95,7.7-17.85,5.13-4.9,11.2-7.35,18.2-7.35s13.06,2.45,18.2,7.35c5.13,4.9,7.7,10.85,7.7,17.85s-2.57,12.95-7.7,17.85c-5.14,4.9-11.2,7.35-18.2,7.35-4.67,0-8.99-1.16-12.95-3.5-3.97-2.33-7.12-5.36-9.45-9.1-2.34-3.73-3.5-7.93-3.5-12.6Z"/><path class="h" d="M6459.32,1438.43c-7.47-4.66-19.14,5.6-35,30.8-7.94,17.74-11.9,29.17-11.9,34.3,0,1.87,.23,4.9,.7,9.1,1.4,10.74,3.03,26.14,4.9,46.2,.46,3.74,.7,10.04,.7,18.9,0,18.2-1.17,30.34-3.5,36.4-1.4,4.66-4.2,7.46-8.4,8.4-6.54,1.86-12.14-.59-16.8-7.35-4.67-6.76-8.87-16.21-12.6-28.35-6.07-21-7.94-52.26-5.6-93.8,.93-24.26-1.87-36.4-8.4-36.4-8.4,0-17.5,10.85-27.3,32.55-9.8,21.7-14.24,39.55-13.3,53.55,0,8.87,.93,20.54,2.8,35,1.4,9.8,2.1,17.97,2.1,24.5,0,8.4-1.4,14-4.2,16.8s-6.3,3.96-10.5,3.5c-4.2-.47-8.87-3.5-14-9.1-8.87-10.26-16.1-25.43-21.7-45.5-4.2-14.46-7.23-30.56-9.1-48.3-.46-5.6-.7-14.35-.7-26.25s.24-20.41,.7-25.55c3.74-32.66,12.36-52.5,25.9-59.5,5.13-2.8,10.15-3.38,15.05-1.75,4.9,1.64,8.75,4.79,11.55,9.45,2.8,6.07,4.2,16.34,4.2,30.8v12.25c0,.24,.93-1.05,2.8-3.85,5.6-9.33,11.9-18.2,18.9-26.6,12.6-14.93,24.26-20.76,35-17.5,8.86,2.8,15.4,11.67,19.6,26.6,.93,2.8,1.98,7.35,3.15,13.65,1.16,6.3,1.86,9.22,2.1,8.75,.23-.46,1.51-2.8,3.85-7,7-14,16.1-26.36,27.3-37.1,8.4-7.93,15.86-12.6,22.4-14,8.86-1.86,16.33,1.87,22.4,11.2,7.93,11.2,13.06,28.47,15.4,51.8,.46,2.34,.81,9.57,1.05,21.7,.23,12.14,.81,24.5,1.75,37.1,.93,12.6,2.1,25.44,3.5,38.5,1.4,13.07,3.85,23.69,7.35,31.85,3.5,8.17,7.58,12.25,12.25,12.25s10.15-6.53,16.45-19.6c6.3-13.06,14.11-33.01,23.45-59.85,9.33-26.83,14.23-41.18,14.7-43.05,1.86-4.2,6.06-5.6,12.6-4.2,7,2.34,9.56,7.24,7.7,14.7-26.6,94.27-54.37,140.7-83.3,139.3-20.54-.47-34.3-11.9-41.3-34.3-3.27-10.73-5.49-28.35-6.65-52.85-1.17-24.5-1.05-46.55,.35-66.15,1.4-23.33-1.4-37.33-8.4-42Z"/><path class="h" d="M6561.52,1483.93c-1.4-28-1.63-44.56-.7-49.7,.47-4.2,1.17-7.23,2.1-9.1,2.8-5.6,6.53-9.1,11.2-10.5,1.86-.46,4.43-.46,7.7,0,3.26,.47,6.06,1.4,8.4,2.8,5.6,3.74,10.03,10.27,13.3,19.6,.93,2.34,1.63,3.62,2.1,3.85,.46,.24,1.4-.35,2.8-1.75,6.06-7.93,14.23-14.93,24.5-21,18.2-11.2,35.93-15.63,53.2-13.3,11.66,1.4,22.16,6.3,31.5,14.7,5.13,4.67,9.56,10.5,13.3,17.5,7.93,14.47,12.6,31.97,14,52.5,.93,9.8,.7,20.77-.7,32.9-1.4,9.34-1.87,14-1.4,14,.93,0,10.03-2.8,27.3-8.4,12.13-4.2,23.33-8.86,33.6-14,8.4-3.73,14-2.8,16.8,2.8,2.8,5.14,.93,8.64-5.6,10.5-17.74,8.87-39.2,17.5-64.4,25.9-8.4,2.34-12.84,3.74-13.3,4.2-.47,.47-1.17,2.34-2.1,5.6-6.07,18.67-14.24,35-24.5,49-11.67,16.33-24.04,26.95-37.1,31.85-13.07,4.9-24.27,3.38-33.6-4.55-4.67-3.74-8.17-8.4-10.5-14-2.8-7.47-3.5-15.16-2.1-23.1,1.86-10.26,7.93-19.36,18.2-27.3,10.26-8.86,25.9-16.8,46.9-23.8,6.06-1.86,9.33-3.03,9.8-3.5s1.4-5.95,2.8-16.45c1.4-10.5,2.1-18.08,2.1-22.75,.46-11.2-.24-21.23-2.1-30.1-4.2-21.46-11.9-32.9-23.1-34.3-5.6-.93-12.6,.94-21,5.6-8.4,4.67-15.4,10.74-21,18.2-10.74,13.54-18.44,28.94-23.1,46.2-1.4,5.14-2.22,22.29-2.45,51.45-.24,29.17-.24,61.83,0,98,.23,36.16,.35,57.28,.35,63.35-1.4,76.06-5.14,122.5-11.2,139.3-3.74,10.26-10.5,14.7-20.3,13.3-8.87-1.4-14.47-7.7-16.8-18.9,0-1.4,.24-50.17,.7-146.3,.93-117.13-.93-193.9-5.6-230.3Zm93.8,138.6c1.86,0,3.73-.24,5.6-.7,10.26-5.14,20.06-17.5,29.4-37.1,4.2-8.86,6.06-13.76,5.6-14.7-.47-.46-3.97,.7-10.5,3.5-6.54,2.8-11.9,5.37-16.1,7.7-7.47,4.2-13.3,8.4-17.5,12.6-4.67,5.6-6.77,10.74-6.3,15.4,0,3.73,1.16,7,3.5,9.8,1.4,2.33,3.5,3.5,6.3,3.5Z"/><path class="h" d="M6899.61,1654.73c-27.54-1.87-51.1-17.74-70.7-47.6-22.4-33.6-36.87-80.03-43.4-139.3-2.8-21.46-3.96-45.73-3.5-72.8,.47-22.86,1.87-43.86,4.2-63,6.06-52.73,17.73-98.46,35-137.2,8.86-20.06,18.9-36.63,30.1-49.7,11.2-13.06,22.86-21.23,35-24.5,6.53-1.4,12.6-1.4,18.2,0,12.6,2.8,22.63,12.14,30.1,28,11.66,24.27,14.93,56,9.8,95.2-6.07,46.67-24.04,95.9-53.9,147.7-17.27,29.4-32.67,50.87-46.2,64.4l-4.2,4.9v3.5c0,14.47,1.4,31.04,4.2,49.7,4.66,32.67,11.66,58.34,21,77,11.2,22.4,25.9,34.53,44.1,36.4,8.86,.46,17.15-3.74,24.85-12.6s13.88-20.65,18.55-35.35c4.66-14.7,8.51-29.16,11.55-43.4,3.03-14.23,5.25-27.88,6.65-40.95,0-4.66,2.21-7.58,6.65-8.75,4.43-1.16,8.63-.58,12.6,1.75,3.96,2.34,5.71,5.37,5.25,9.1-1.4,10.74-2.57,20.19-3.5,28.35-.94,8.17-2.69,18.2-5.25,30.1-2.57,11.9-5.25,22.29-8.05,31.15-2.8,8.87-6.77,17.97-11.9,27.3-5.14,9.33-10.74,16.91-16.8,22.75-6.07,5.83-13.42,10.5-22.05,14-8.64,3.5-18.09,4.78-28.35,3.85Zm-59.5-218.4c.46,0,2.1-2.1,4.9-6.3,26.13-39.66,45.5-75.6,58.1-107.8,21.46-53.66,28.23-100.56,20.3-140.7-2.8-14-6.77-23.8-11.9-29.4-3.74-4.2-7.7-5.13-11.9-2.8-14.94,7-28.7,42.94-41.3,107.8-9.34,44.34-15.17,90.54-17.5,138.6-.47,3.74-.7,8.99-.7,15.75v24.85Z"/><path class="h" d="M7183.81,1491.63c-2.8,6.07-8.75,16.34-17.85,30.8-9.1,14.47-22.99,32.2-41.65,53.2-18.67,21-37.1,37.1-55.3,48.3-27.07,15.4-50.29,19.01-69.65,10.85-19.37-8.17-33.25-26.95-41.65-56.35-3.73-13.53-5.6-28-5.6-43.4,0-23.33,4.67-45.26,14-65.8,12.13-26.13,28.7-44.68,49.7-55.65,21-10.96,40.13-11.31,57.4-1.05,5.13,3.27,9.8,7.47,14,12.6,4.2,5.14,7.35,10.74,9.45,16.8,2.1,6.07,3.61,12.37,4.55,18.9,.93,6.54,.46,12.6-1.4,18.2-3.27,21-14.59,40.25-33.95,57.75-19.37,17.5-40.95,30.22-64.75,38.15,1.4,7.94,3.5,14.94,6.3,21,4.66,9.34,13.06,14.24,25.2,14.7,12.13,.47,22.16-2.1,30.1-7.7,17.73-9.8,36.28-25.9,55.65-48.3,19.36-22.4,36.51-45.03,51.45-67.9,1.86-5.6,5.36-7.46,10.5-5.6,5.13,1.87,6.3,5.37,3.5,10.5Zm-114.1,7c4.66-9.33,5.01-18.9,1.05-28.7-3.97-9.8-11.32-13.76-22.05-11.9-12.6,1.87-23.57,10.97-32.9,27.3-3.74,6.54-7,14.47-9.8,23.8-5.14,16.34-7.24,33.14-6.3,50.4v.7c15.4-7.46,29.51-16.8,42.35-28,12.83-11.2,22.05-22.4,27.65-33.6Z"/></g><g><path class="h" d="M4901.3,1825.01l16.5,4.3c.26,3.39,.39,6.32,.39,8.79,0,12.96-4.69,23.31-14.06,31.05-9.38,7.75-21.94,11.62-37.7,11.62-39.52,0-59.28-22.23-59.28-66.7,0-21.09,5.76-38.2,17.29-51.32,11.52-13.12,26.53-19.68,45.02-19.68,28.84,0,43.26,13.87,43.26,41.6l-16.6,7.62c.2-3.91,.29-6.93,.29-9.08,0-19.66-7.88-29.49-23.63-29.49-16.67,0-25,20.87-25,62.6,0,35.87,9.31,53.81,27.93,53.81,7.68,0,14.08-3.06,19.19-9.18,5.11-6.12,7.67-13.77,7.67-22.95,0-2.93-.42-7.26-1.27-12.99Z"/><path class="h" d="M5073.04,1745.22v89.45c0,30.66-16.96,46-50.88,46s-50.68-15.33-50.68-46v-89.45h38.67v90.63c0,11.72,1.68,19.73,5.03,24.02,3.35,4.3,9.55,6.45,18.6,6.45,17.51,0,26.27-10.55,26.27-31.64v-89.45h12.99Z"/><path class="h" d="M5134.04,1878.52v-133.3h57.52c32.62,0,48.93,13.05,48.93,39.16s-18.13,39.55-54.39,39.55h-13.38v54.59h-38.67Zm38.67-66.89h8.69c14.06,0,21.09-9.31,21.09-27.93,0-17.45-7.03-26.17-21.09-26.17h-8.69v54.1Z"/><path class="h" d="M5381.75,1825.01l16.5,4.3c.26,3.39,.39,6.32,.39,8.79,0,12.96-4.69,23.31-14.06,31.05-9.38,7.75-21.94,11.62-37.7,11.62-39.52,0-59.28-22.23-59.28-66.7,0-21.09,5.76-38.2,17.29-51.32,11.52-13.12,26.53-19.68,45.02-19.68,28.84,0,43.26,13.87,43.26,41.6l-16.6,7.62c.2-3.91,.29-6.93,.29-9.08,0-19.66-7.88-29.49-23.63-29.49-16.67,0-25,20.87-25,62.6,0,35.87,9.31,53.81,27.93,53.81,7.68,0,14.08-3.06,19.19-9.18,5.11-6.12,7.67-13.77,7.67-22.95,0-2.93-.42-7.26-1.27-12.99Z"/><path class="h" d="M5513.84,1745.22l37.11,133.3h-38.87l-7.91-28.91h-40.14l-8.5,28.91h-15.14l39.45-133.3h33.98Zm-46,91.02h32.71l-15.72-59.08-16.99,59.08Z"/><path class="h" d="M5704.04,1745.22l-33.3,42.09,49.12,91.21h-43.07l-31.25-58.4-5.57,6.25v52.15h-38.67v-133.3h38.67v59.38l45.9-59.38h18.16Z"/><path class="h" d="M5856.14,1745.22v13.38h-47.75v40.33h40.14v13.38h-40.14v52.83h55.86v13.38h-94.53v-133.3h86.43Z"/><path class="h" d="M5916.36,1878.52v-133.3h57.32c14.91,0,26.82,3.14,35.74,9.42,8.92,6.28,13.38,14.7,13.38,25.24,0,16.15-9.57,26.66-28.71,31.54,9.83,3.65,16.19,7.65,19.09,12.01,2.9,4.36,4.87,12.83,5.91,25.39,1.24,14.97,3.74,24.87,7.52,29.69h-41.99c-2.67-6.18-4-13.9-4-23.14l-.2-7.91-.2-9.96c0-15.36-6.19-23.05-18.55-23.05h-6.64v64.06h-38.67Zm38.67-75.1h7.81c14.65,0,21.97-7.65,21.97-22.95s-7.32-22.95-21.97-22.95h-7.81v45.9Z"/><path class="h" d="M6175.89,1745.22l-32.52,84.08v49.22h-38.67v-49.22l-35.94-84.08h40.14l27.15,64.26,24.41-64.26h15.43Z"/></g><g><path class="h" d="M4012.79,1673.53h-30.8c-26.14-1.87-49.24-7.94-69.3-18.2-13.07-6.07-24.74-14-35-23.8-15.4-14.47-26.84-31.5-34.3-51.1-12.13-32.2-13.06-64.4-2.8-96.6,10.73-33.13,31.03-57.16,60.9-72.1,15.86-7.93,32.66-11.9,50.4-11.9s32.66,3.5,46.2,10.5c7.46,3.74,14.46,8.64,21,14.7,19.6,19.14,25.9,42.24,18.9,69.3-.94,5.14-3.04,10.74-6.3,16.8-11.2,22.87-28.7,36.87-52.5,42-2.8,.47-6.89,.7-12.25,.7s-9.45-.23-12.25-.7c-13.54-3.26-23.57-9.56-30.1-18.9-7-10.73-8.64-21.7-4.9-32.9,1.86-5.6,6.3-12.36,13.3-20.3,8.4-9.33,15.4-15.4,21-18.2,2.33-.93,4.43-1.4,6.3-1.4s3.5,.24,4.9,.7c4.2,2.8,5.13,6.77,2.8,11.9-.94,1.87-3.74,6.07-8.4,12.6-10.74,16.8-15.87,27.07-15.4,30.8,.93,4.67,4.2,8.4,9.8,11.2,7,3.27,15.16,3.5,24.5,.7,13.53-4.66,24.03-14,31.5-28,6.53-13.06,7.7-25.9,3.5-38.5-3.74-12.13-12.14-21.46-25.2-28-19.14-9.33-39.44-10.26-60.9-2.8-12.6,4.2-23.8,11.2-33.6,21-20.54,20.07-30.34,45.74-29.4,77,.46,12.6,2.56,24.04,6.3,34.3,2.8,7,6.06,13.53,9.8,19.6,5.6,8.86,12.83,16.8,21.7,23.8,28,22.86,64.16,31.5,108.5,25.9,24.73-2.8,47.36-11.2,67.9-25.2,22.4-14.94,35.93-33.37,40.6-55.3,1.86-9.33,1.86-19.13,0-29.4-5.6-30.8-22.87-61.83-51.8-93.1-13.07-14-35.47-33.13-67.2-57.4-14.94-11.66-25.9-20.53-32.9-26.6-11.2-9.33-20.07-18.2-26.6-26.6-15.87-19.6-25.44-40.36-28.7-62.3-1.4-8.86-1.64-17.96-.7-27.3,1.4-19.13,7-38.03,16.8-56.7,16.8-33.13,39.9-60.2,69.3-81.2,20.53-14.93,41.06-24.03,61.6-27.3,7-.93,14-1.16,21-.7,11.66,.47,22.4,3.27,32.2,8.4,9.8,5.14,18.55,11.79,26.25,19.95,7.7,8.17,14,18.09,18.9,29.75,4.9,11.67,8.28,24.5,10.15,38.5,3.26,24.27,1.4,49.24-5.6,74.9-7.94,28.94-19.37,52.97-34.3,72.1-5.14,6.54-10.27,11.9-15.4,16.1-8.87,6.54-17.04,9.8-24.5,9.8s-13.07-2.45-16.8-7.35c-3.74-4.9-4.9-11.08-3.5-18.55,.93-4.66,5.83-18.43,14.7-41.3,9.33-24.26,15.4-47.83,18.2-70.7,.46-3.26,.58-8.05,.35-14.35-.24-6.3-.59-10.85-1.05-13.65-3.27-22.4-11.2-34.53-23.8-36.4-7-.93-15.87,1.4-26.6,7-10.74,5.6-21.47,13.77-32.2,24.5-16.8,16.34-29.4,33.6-37.8,51.8-9.34,20.54-10.04,38.97-2.1,55.3,6.53,13.54,23.8,31.04,51.8,52.5,20.06,15.4,34.3,26.84,42.7,34.3,27.53,23.34,49.7,47.14,66.5,71.4,19.13,28.47,30.56,57.17,34.3,86.1,1.86,12.14,1.86,24.5,0,37.1-6.07,38.26-27.3,68.83-63.7,91.7-9.34,6.06-19.14,10.96-29.4,14.7-21,8.4-43.17,13.53-66.5,15.4Z"/><path class="h" d="M4424.38,1652.83c-24.74-2.34-45.74-17.04-63-44.1-5.14-7.93-9.57-16.8-13.3-26.6-1.4-4.2-2.1-6.53-2.1-7l-2.1,2.8c-4.67,11.2-10.74,21.7-18.2,31.5-11.67,15.4-25.44,23.8-41.3,25.2-13.54,1.4-26.37-2.57-38.5-11.9-7-5.14-13.77-11.9-20.3-20.3-12.6-16.8-22.17-38.5-28.7-65.1-3.26-13.53-5.13-28.23-5.6-44.1-.46-15.4,1.17-26.83,4.9-34.3,3.26-6.53,7.7-11.08,13.3-13.65,5.6-2.56,11.43-2.91,17.5-1.05,9.8,3.27,16.33,12.14,19.6,26.6,.46,3.74,1.63,13.77,3.5,30.1,2.8,34.07,7.46,59.27,14,75.6,4.66,13.07,10.73,21.47,18.2,25.2,1.86,.94,3.96,1.4,6.3,1.4s4.66-.7,7-2.1c8.4-4.2,17.26-14.93,26.6-32.2,5.13-9.33,8.63-16.33,10.5-21,1.86-4.66,2.8-7.46,2.8-8.4s-.47-3.96-1.4-9.1c-2.8-12.6-4.67-24.03-5.6-34.3-.94-4.66-1.4-11.9-1.4-21.7s.46-16.33,1.4-19.6c1.86-11.66,6.53-19.36,14-23.1,1.86-.93,4.2-1.4,7-1.4s5.36,.47,7.7,1.4c5.6,2.8,9.8,8.4,12.6,16.8,1.86,6.07,4.2,21.24,7,45.5,4.2,35.47,9.56,62.54,16.1,81.2,5.13,16.8,11.9,28.94,20.3,36.4,1.86,1.4,4.2,2.8,7,4.2,2.8,1.4,5.13,2.33,7,2.8,4.66,.93,9.56,.93,14.7,0,10.26-2.34,20.53-7.7,30.8-16.1,2.33-1.86,5.36-4.66,9.1-8.4,12.13-12.13,22.16-26.6,30.1-43.4,7-14,10.03-21.23,9.1-21.7l-6.3-2.1c-22.87-6.06-40.84-18.9-53.9-38.5-16.34-25.2-21.94-51.33-16.8-78.4,2.8-13.06,8.05-23.91,15.75-32.55,7.7-8.63,16.45-13.88,26.25-15.75,4.66-.46,9.1-.46,13.3,0,7,1.4,13.53,4.44,19.6,9.1,18.66,14,30.1,38.04,34.3,72.1,2.33,19.14,2.1,38.74-.7,58.8-.94,5.14-1.4,8.17-1.4,9.1v1.4h2.1c12.6-1.86,27.3-7.46,44.1-16.8,1.4-.93,3.03-1.86,4.9-2.8,7.46-4.66,12.83-4.2,16.1,1.4,2.8,4.67,1.86,8.4-2.8,11.2-5.14,3.74-10.5,7-16.1,9.8-16.34,7.94-32.9,12.84-49.7,14.7l-3.5,.7-3.5,10.5c-11.2,33.14-26.14,59.5-44.8,79.1-6.54,7-13.3,12.83-20.3,17.5-17.74,11.66-35.47,16.8-53.2,15.4Zm100.8-142.1c.93,0,1.86-1.63,2.8-4.9,7.46-33.6,7-63.23-1.4-88.9-1.87-6.53-4.44-12.36-7.7-17.5-3.27-5.13-7-9.21-11.2-12.25-4.2-3.03-8.4-4.78-12.6-5.25-5.6-.93-11.2,1.17-16.8,6.3-7.94,7.47-12.72,18.55-14.35,33.25-1.64,14.7,.35,28.82,5.95,42.35,7.46,18.67,19.83,32.44,37.1,41.3,8.86,4.2,14.93,6.07,18.2,5.6Z"/><path class="h" d="M4812.18,1494.63c-2.8,6.07-8.75,16.34-17.85,30.8-9.1,14.47-22.99,32.2-41.65,53.2-18.67,21-37.1,37.1-55.3,48.3-27.07,15.4-50.29,19.01-69.65,10.85-19.37-8.17-33.25-26.95-41.65-56.35-3.73-13.53-5.6-28-5.6-43.4,0-23.33,4.67-45.26,14-65.8,12.13-26.13,28.7-44.68,49.7-55.65,21-10.96,40.13-11.31,57.4-1.05,5.13,3.27,9.8,7.47,14,12.6,4.2,5.14,7.35,10.74,9.45,16.8,2.1,6.07,3.61,12.37,4.55,18.9,.93,6.54,.46,12.6-1.4,18.2-3.27,21-14.59,40.25-33.95,57.75-19.37,17.5-40.95,30.22-64.75,38.15,1.4,7.94,3.5,14.94,6.3,21,4.66,9.34,13.06,14.24,25.2,14.7,12.13,.47,22.16-2.1,30.1-7.7,17.73-9.8,36.28-25.9,55.65-48.3,19.36-22.4,36.51-45.03,51.45-67.9,1.86-5.6,5.36-7.46,10.5-5.6,5.13,1.87,6.3,5.37,3.5,10.5Zm-114.1,7c4.66-9.33,5.01-18.9,1.05-28.7-3.97-9.8-11.32-13.76-22.05-11.9-12.6,1.87-23.57,10.97-32.9,27.3-3.74,6.54-7,14.47-9.8,23.8-5.14,16.34-7.24,33.14-6.3,50.4v.7c15.4-7.46,29.51-16.8,42.35-28,12.83-11.2,22.05-22.4,27.65-33.6Z"/><path class="h" d="M5011.67,1494.63c-2.8,6.07-8.75,16.34-17.85,30.8-9.1,14.47-22.99,32.2-41.65,53.2-18.67,21-37.1,37.1-55.3,48.3-27.07,15.4-50.29,19.01-69.65,10.85-19.37-8.17-33.25-26.95-41.65-56.35-3.73-13.53-5.6-28-5.6-43.4,0-23.33,4.67-45.26,14-65.8,12.13-26.13,28.7-44.68,49.7-55.65,21-10.96,40.13-11.31,57.4-1.05,5.13,3.27,9.8,7.47,14,12.6,4.2,5.14,7.35,10.74,9.45,16.8,2.1,6.07,3.61,12.37,4.55,18.9,.93,6.54,.46,12.6-1.4,18.2-3.27,21-14.59,40.25-33.95,57.75-19.37,17.5-40.95,30.22-64.75,38.15,1.4,7.94,3.5,14.94,6.3,21,4.66,9.34,13.06,14.24,25.2,14.7,12.13,.47,22.16-2.1,30.1-7.7,17.73-9.8,36.28-25.9,55.65-48.3,19.36-22.4,36.51-45.03,51.45-67.9,1.86-5.6,5.36-7.46,10.5-5.6,5.13,1.87,6.3,5.37,3.5,10.5Zm-114.1,7c4.66-9.33,5.01-18.9,1.05-28.7-3.97-9.8-11.32-13.76-22.05-11.9-12.6,1.87-23.57,10.97-32.9,27.3-3.74,6.54-7,14.47-9.8,23.8-5.14,16.34-7.24,33.14-6.3,50.4v.7c15.4-7.46,29.51-16.8,42.35-28,12.83-11.2,22.05-22.4,27.65-33.6Z"/><path class="h" d="M5106.16,1636.73c-8.87-.94-17.5-3.27-25.9-7-12.6-6.07-24.74-16.45-36.4-31.15-11.67-14.7-21.47-32.08-29.4-52.15-20.54-52.26-28.93-124.6-25.2-217,.93-23.8,2.33-45.5,4.2-65.1,.93-6.06,1.16-9.33,.7-9.8-.94-.93-8.86-1.4-23.8-1.4s-26.83,.24-35.7,.7c-43.86,3.27-75.83,10.04-95.9,20.3-10.26,5.6-18.78,13.19-25.55,22.75-6.76,9.57-12.95,14.35-18.55,14.35-1.4,0-2.8-.23-4.2-.7-3.73-1.86-6.3-5.6-7.7-11.2-2.33-8.4,.24-18.2,7.7-29.4,7.47-11.66,19.14-21.46,35-29.4,25.2-12.6,61.6-20.3,109.2-23.1,5.6-.46,15.17-.7,28.7-.7s22.99,.12,28.35,.35c5.36,.24,8.28,.24,8.75,0,.46-.23,.93-.81,1.4-1.75,.93-6.53,3.73-14.46,8.4-23.8,3.26-7,6.76-12.36,10.5-16.1,9.33-8.86,19.13-10.73,29.4-5.6,4.2,2.34,7.46,6.07,9.8,11.2,4.2,8.4,6.3,20.77,6.3,37.1,0,3.74,.23,5.72,.7,5.95,.46,.24,3.5,.82,9.1,1.75,10.26,1.4,26.36,3.74,48.3,7,27.06,4.2,48.3,7.24,63.7,9.1,5.6,.47,8.63,.7,9.1,.7s.93-.93,1.4-2.8c2.33-13.53,12.13-25.9,29.4-37.1,16.8-11.2,36.4-17.5,58.8-18.9,21-1.4,37.1,3.74,48.3,15.4,5.6,6.07,8.86,13.07,9.8,21,.93,7-.24,13.77-3.5,20.3-3.74,7.47-9.34,13.77-16.8,18.9-14.47,9.34-34.07,15.17-58.8,17.5-22.4,2.34-52.04,1.87-88.9-1.4-14-1.4-39.2-4.66-75.6-9.8-24.27-3.26-36.64-4.66-37.1-4.2s-.7,3.5-.7,9.1c-.47,7-1.87,22.87-4.2,47.6-2.8,32.2-4.44,59.74-4.9,82.6-.47,27.54,0,48.54,1.4,63,1.86,30.34,5.83,56.24,11.9,77.7,8.86,30.8,21.46,49.7,37.8,56.7,5.6,2.34,10.85,3.74,15.75,4.2,4.9,.47,9.56-.58,14-3.15,4.43-2.56,8.4-5.25,11.9-8.05s6.88-7.23,10.15-13.3c3.26-6.06,6.06-11.2,8.4-15.4,2.33-4.2,5.01-10.5,8.05-18.9,3.03-8.4,5.36-14.93,7-19.6,1.63-4.66,3.85-11.43,6.65-20.3,1.86-5.6,3.03-9.8,3.5-12.6,2.8-5.13,6.88-8.4,12.25-9.8,5.36-1.4,9.56-.11,12.6,3.85,3.03,3.97,3.15,9.69,.35,17.15-5.6,18.67-11.32,35.24-17.15,49.7-5.84,14.47-13.19,28.94-22.05,43.4-8.87,14.47-19.37,25.31-31.5,32.55-12.14,7.23-25.2,10.15-39.2,8.75Zm109.9-392c1.86,.47,9.68,.7,23.45,.7s24.15-.23,31.15-.7c5.6,0,10.26-.23,14-.7,8.4-.93,15.75-2.56,22.05-4.9,6.3-2.33,11.2-5.01,14.7-8.05,3.5-3.03,5.25-6.18,5.25-9.45,0-4.66-3.04-8.86-9.1-12.6-5.6-3.26-13.54-5.13-23.8-5.6-17.74-.93-35,3.74-51.8,14-9.34,5.6-17.04,12.6-23.1,21-2.8,3.74-3.74,5.84-2.8,6.3Z"/><path class="h" d="M5536.05,1316.13c-.47-3.73-2.45-7.23-5.95-10.5-3.5-3.26-7.7-5.48-12.6-6.65-4.9-1.16-9.8-1.4-14.7-.7-4.9,.7-9.69,2.92-14.35,6.65-4.67,3.74-7.94,8.87-9.8,15.4-4.67,12.6-4.79,26.49-.35,41.65,4.43,15.17,12.95,28.35,25.55,39.55,6.53,0,14.46,1.87,23.8,5.6,4.2,1.4,6.53,3.97,7,7.7,.46,3.74-2.57,5.84-9.1,6.3-10.27,0-20.07-2.33-29.4-7-14.47,2.34-25.09,11.55-31.85,27.65-6.77,16.1-8.99,34.54-6.65,55.3,2.33,20.77,8.4,39.79,18.2,57.05,8.86,16.8,20.41,29.05,34.65,36.75,14.23,7.7,27.18,8.05,38.85,1.05,10.26-6.06,17.5-15.63,21.7-28.7,4.2-13.06,5.6-26.36,4.2-39.9-.94-5.6-2.22-10.85-3.85-15.75-1.64-4.9-3.85-9.1-6.65-12.6s-5.95-5.83-9.45-7c-3.5-1.16-7.35-1.05-11.55,.35-4.67,1.87-5.72,7.59-3.15,17.15,2.56,9.57,2.68,15.05,.35,16.45-6.07,2.8-10.74-.93-14-11.2-6.07-17.73-1.87-34.76,12.6-51.1,7.46-8.86,17.26-16.1,29.4-21.7,.93-.46,3.15-1.4,6.65-2.8,3.5-1.4,6.18-2.56,8.05-3.5l7-3.5c2.8-1.4,5.25-2.91,7.35-4.55,2.1-1.63,3.85-3.38,5.25-5.25,6.53-7.46,7.81-16.33,3.85-26.6-3.97-10.26-11.55-14-22.75-11.2-3.27,.94-5.14-.23-5.6-3.5-.94-2.33,0-4.2,2.8-5.6,10.26-4.2,18.66-5.01,25.2-2.45,6.53,2.57,11.31,6.54,14.35,11.9,3.03,5.37,4.31,11.67,3.85,18.9-.47,7.24-2.8,13.65-7,19.25-1.87,2.34-4.09,4.44-6.65,6.3-2.57,1.87-5.6,3.85-9.1,5.95s-6.54,3.85-9.1,5.25c-2.57,1.4-6.19,3.15-10.85,5.25-4.67,2.1-7.94,3.62-9.8,4.55-8.87,4.2-16.45,9.8-22.75,16.8s-9.69,13.3-10.15,18.9c11.66-9.8,21.93-10.15,30.8-1.05,8.86,9.1,14.46,21.82,16.8,38.15,1.4,10.74,1.16,21.7-.7,32.9-1.87,11.2-6.07,22.4-12.6,33.6-6.54,11.2-14.94,20.07-25.2,26.6-16.8,11.2-35.82,12.6-57.05,4.2-21.24-8.4-38.15-24.96-50.75-49.7-10.74-21-16.91-43.4-18.55-67.2-1.63-23.8,2.8-44.8,13.3-63s26.71-28.23,48.65-30.1c-13.54-7-23.34-17.73-29.4-32.2-6.07-14.46-8.29-28.58-6.65-42.35,1.63-13.76,7.11-25.78,16.45-36.05,9.33-10.26,21.23-14.93,35.7-14,9.8,.94,18.78,4.55,26.95,10.85,8.16,6.3,12.71,13.65,13.65,22.05,.93,8.87-1.17,16.1-6.3,21.7-5.14,5.6-12.14,6.77-21,3.5-2.8-.93-3.74-2.8-2.8-5.6,.93-2.8,3.03-3.73,6.3-2.8,9.33,3.27,15.4,1.17,18.2-6.3,.93-2.8,1.16-5.83,.7-9.1Z"/><path class="h" d="M5970.63,1672.53h-30.8c-26.14-1.87-49.24-7.94-69.3-18.2-13.07-6.07-24.74-14-35-23.8-15.4-14.47-26.84-31.5-34.3-51.1-12.13-32.2-13.06-64.4-2.8-96.6,10.73-33.13,31.03-57.16,60.9-72.1,15.86-7.93,32.66-11.9,50.4-11.9s32.66,3.5,46.2,10.5c7.46,3.74,14.46,8.64,21,14.7,19.6,19.14,25.9,42.24,18.9,69.3-.94,5.14-3.04,10.74-6.3,16.8-11.2,22.87-28.7,36.87-52.5,42-2.8,.47-6.89,.7-12.25,.7s-9.45-.23-12.25-.7c-13.54-3.26-23.57-9.56-30.1-18.9-7-10.73-8.64-21.7-4.9-32.9,1.86-5.6,6.3-12.36,13.3-20.3,8.4-9.33,15.4-15.4,21-18.2,2.33-.93,4.43-1.4,6.3-1.4s3.5,.24,4.9,.7c4.2,2.8,5.13,6.77,2.8,11.9-.94,1.87-3.74,6.07-8.4,12.6-10.74,16.8-15.87,27.07-15.4,30.8,.93,4.67,4.2,8.4,9.8,11.2,7,3.27,15.16,3.5,24.5,.7,13.53-4.66,24.03-14,31.5-28,6.53-13.06,7.7-25.9,3.5-38.5-3.74-12.13-12.14-21.46-25.2-28-19.14-9.33-39.44-10.26-60.9-2.8-12.6,4.2-23.8,11.2-33.6,21-20.54,20.07-30.34,45.74-29.4,77,.46,12.6,2.56,24.04,6.3,34.3,2.8,7,6.06,13.53,9.8,19.6,5.6,8.86,12.83,16.8,21.7,23.8,28,22.86,64.16,31.5,108.5,25.9,24.73-2.8,47.36-11.2,67.9-25.2,22.4-14.94,35.93-33.37,40.6-55.3,1.86-9.33,1.86-19.13,0-29.4-5.6-30.8-22.87-61.83-51.8-93.1-13.07-14-35.47-33.13-67.2-57.4-14.94-11.66-25.9-20.53-32.9-26.6-11.2-9.33-20.07-18.2-26.6-26.6-15.87-19.6-25.44-40.36-28.7-62.3-1.4-8.86-1.64-17.96-.7-27.3,1.4-19.13,7-38.03,16.8-56.7,16.8-33.13,39.9-60.2,69.3-81.2,20.53-14.93,41.06-24.03,61.6-27.3,7-.93,14-1.16,21-.7,11.66,.47,22.4,3.27,32.2,8.4,9.8,5.14,18.55,11.79,26.25,19.95,7.7,8.17,14,18.09,18.9,29.75,4.9,11.67,8.28,24.5,10.15,38.5,3.26,24.27,1.4,49.24-5.6,74.9-7.94,28.94-19.37,52.97-34.3,72.1-5.14,6.54-10.27,11.9-15.4,16.1-8.87,6.54-17.04,9.8-24.5,9.8s-13.07-2.45-16.8-7.35c-3.74-4.9-4.9-11.08-3.5-18.55,.93-4.66,5.83-18.43,14.7-41.3,9.33-24.26,15.4-47.83,18.2-70.7,.46-3.26,.58-8.05,.35-14.35-.24-6.3-.59-10.85-1.05-13.65-3.27-22.4-11.2-34.53-23.8-36.4-7-.93-15.87,1.4-26.6,7-10.74,5.6-21.47,13.77-32.2,24.5-16.8,16.34-29.4,33.6-37.8,51.8-9.34,20.54-10.04,38.97-2.1,55.3,6.53,13.54,23.8,31.04,51.8,52.5,20.06,15.4,34.3,26.84,42.7,34.3,27.53,23.34,49.7,47.14,66.5,71.4,19.13,28.47,30.56,57.17,34.3,86.1,1.86,12.14,1.86,24.5,0,37.1-6.07,38.26-27.3,68.83-63.7,91.7-9.34,6.06-19.14,10.96-29.4,14.7-21,8.4-43.17,13.53-66.5,15.4Z"/><path class="h" d="M6173.62,1413.43c2.8-2.33,6.06-3.5,9.8-3.5,2.33,0,4.2,.47,5.6,1.4,4.66,2.34,7.93,6.77,9.8,13.3,1.4,6.54,1.4,19.84,0,39.9-.94,9.8-1.64,18.2-2.1,25.2-.94,9.8-1.64,20.3-2.1,31.5-5.14,60.2,.93,89.6,18.2,88.2,9.8-.46,21.93-14.23,36.4-41.3,14.46-27.06,26.83-53.66,37.1-79.8,1.4-4.66,5.13-5.83,11.2-3.5,6.06,1.87,7.46,6.07,4.2,12.6-19.6,47.6-37.45,82.95-53.55,106.05-16.1,23.1-33.72,34.41-52.85,33.95-20.54-.94-34.07-12.6-40.6-35-3.73-11.66-5.71-31.03-5.95-58.1-.23-27.06,1.75-53.9,5.95-80.5,4.2-26.6,10.5-43.4,18.9-50.4Zm-12.6-49.7c0-7,2.56-12.95,7.7-17.85,5.13-4.9,11.2-7.35,18.2-7.35s13.06,2.45,18.2,7.35c5.13,4.9,7.7,10.85,7.7,17.85s-2.57,12.95-7.7,17.85c-5.14,4.9-11.2,7.35-18.2,7.35-4.67,0-8.99-1.16-12.95-3.5-3.97-2.33-7.12-5.36-9.45-9.1-2.34-3.73-3.5-7.93-3.5-12.6Z"/><path class="h" d="M6461.32,1441.43c-7.47-4.66-19.14,5.6-35,30.8-7.94,17.74-11.9,29.17-11.9,34.3,0,1.87,.23,4.9,.7,9.1,1.4,10.74,3.03,26.14,4.9,46.2,.46,3.74,.7,10.04,.7,18.9,0,18.2-1.17,30.34-3.5,36.4-1.4,4.66-4.2,7.46-8.4,8.4-6.54,1.86-12.14-.59-16.8-7.35-4.67-6.76-8.87-16.21-12.6-28.35-6.07-21-7.94-52.26-5.6-93.8,.93-24.26-1.87-36.4-8.4-36.4-8.4,0-17.5,10.85-27.3,32.55-9.8,21.7-14.24,39.55-13.3,53.55,0,8.87,.93,20.54,2.8,35,1.4,9.8,2.1,17.97,2.1,24.5,0,8.4-1.4,14-4.2,16.8s-6.3,3.96-10.5,3.5c-4.2-.47-8.87-3.5-14-9.1-8.87-10.26-16.1-25.43-21.7-45.5-4.2-14.46-7.23-30.56-9.1-48.3-.46-5.6-.7-14.35-.7-26.25s.24-20.41,.7-25.55c3.74-32.66,12.36-52.5,25.9-59.5,5.13-2.8,10.15-3.38,15.05-1.75,4.9,1.64,8.75,4.79,11.55,9.45,2.8,6.07,4.2,16.34,4.2,30.8v12.25c0,.24,.93-1.05,2.8-3.85,5.6-9.33,11.9-18.2,18.9-26.6,12.6-14.93,24.26-20.76,35-17.5,8.86,2.8,15.4,11.67,19.6,26.6,.93,2.8,1.98,7.35,3.15,13.65,1.16,6.3,1.86,9.22,2.1,8.75,.23-.46,1.51-2.8,3.85-7,7-14,16.1-26.36,27.3-37.1,8.4-7.93,15.86-12.6,22.4-14,8.86-1.86,16.33,1.87,22.4,11.2,7.93,11.2,13.06,28.47,15.4,51.8,.46,2.34,.81,9.57,1.05,21.7,.23,12.14,.81,24.5,1.75,37.1,.93,12.6,2.1,25.44,3.5,38.5,1.4,13.07,3.85,23.69,7.35,31.85,3.5,8.17,7.58,12.25,12.25,12.25s10.15-6.53,16.45-19.6c6.3-13.06,14.11-33.01,23.45-59.85,9.33-26.83,14.23-41.18,14.7-43.05,1.86-4.2,6.06-5.6,12.6-4.2,7,2.34,9.56,7.24,7.7,14.7-26.6,94.27-54.37,140.7-83.3,139.3-20.54-.47-34.3-11.9-41.3-34.3-3.27-10.73-5.49-28.35-6.65-52.85-1.17-24.5-1.05-46.55,.35-66.15,1.4-23.33-1.4-37.33-8.4-42Z"/><path class="h" d="M6563.52,1486.93c-1.4-28-1.63-44.56-.7-49.7,.47-4.2,1.17-7.23,2.1-9.1,2.8-5.6,6.53-9.1,11.2-10.5,1.86-.46,4.43-.46,7.7,0,3.26,.47,6.06,1.4,8.4,2.8,5.6,3.74,10.03,10.27,13.3,19.6,.93,2.34,1.63,3.62,2.1,3.85,.46,.24,1.4-.35,2.8-1.75,6.06-7.93,14.23-14.93,24.5-21,18.2-11.2,35.93-15.63,53.2-13.3,11.66,1.4,22.16,6.3,31.5,14.7,5.13,4.67,9.56,10.5,13.3,17.5,7.93,14.47,12.6,31.97,14,52.5,.93,9.8,.7,20.77-.7,32.9-1.4,9.34-1.87,14-1.4,14,.93,0,10.03-2.8,27.3-8.4,12.13-4.2,23.33-8.86,33.6-14,8.4-3.73,14-2.8,16.8,2.8,2.8,5.14,.93,8.64-5.6,10.5-17.74,8.87-39.2,17.5-64.4,25.9-8.4,2.34-12.84,3.74-13.3,4.2-.47,.47-1.17,2.34-2.1,5.6-6.07,18.67-14.24,35-24.5,49-11.67,16.33-24.04,26.95-37.1,31.85-13.07,4.9-24.27,3.38-33.6-4.55-4.67-3.74-8.17-8.4-10.5-14-2.8-7.47-3.5-15.16-2.1-23.1,1.86-10.26,7.93-19.36,18.2-27.3,10.26-8.86,25.9-16.8,46.9-23.8,6.06-1.86,9.33-3.03,9.8-3.5s1.4-5.95,2.8-16.45c1.4-10.5,2.1-18.08,2.1-22.75,.46-11.2-.24-21.23-2.1-30.1-4.2-21.46-11.9-32.9-23.1-34.3-5.6-.93-12.6,.94-21,5.6-8.4,4.67-15.4,10.74-21,18.2-10.74,13.54-18.44,28.94-23.1,46.2-1.4,5.14-2.22,22.29-2.45,51.45-.24,29.17-.24,61.83,0,98,.23,36.16,.35,57.28,.35,63.35-1.4,76.06-5.14,122.5-11.2,139.3-3.74,10.26-10.5,14.7-20.3,13.3-8.87-1.4-14.47-7.7-16.8-18.9,0-1.4,.24-50.17,.7-146.3,.93-117.13-.93-193.9-5.6-230.3Zm93.8,138.6c1.86,0,3.73-.24,5.6-.7,10.26-5.14,20.06-17.5,29.4-37.1,4.2-8.86,6.06-13.76,5.6-14.7-.47-.46-3.97,.7-10.5,3.5-6.54,2.8-11.9,5.37-16.1,7.7-7.47,4.2-13.3,8.4-17.5,12.6-4.67,5.6-6.77,10.74-6.3,15.4,0,3.73,1.16,7,3.5,9.8,1.4,2.33,3.5,3.5,6.3,3.5Z"/><path class="h" d="M6901.61,1657.73c-27.54-1.87-51.1-17.74-70.7-47.6-22.4-33.6-36.87-80.03-43.4-139.3-2.8-21.46-3.96-45.73-3.5-72.8,.47-22.86,1.87-43.86,4.2-63,6.06-52.73,17.73-98.46,35-137.2,8.86-20.06,18.9-36.63,30.1-49.7,11.2-13.06,22.86-21.23,35-24.5,6.53-1.4,12.6-1.4,18.2,0,12.6,2.8,22.63,12.14,30.1,28,11.66,24.27,14.93,56,9.8,95.2-6.07,46.67-24.04,95.9-53.9,147.7-17.27,29.4-32.67,50.87-46.2,64.4l-4.2,4.9v3.5c0,14.47,1.4,31.04,4.2,49.7,4.66,32.67,11.66,58.34,21,77,11.2,22.4,25.9,34.53,44.1,36.4,8.86,.46,17.15-3.74,24.85-12.6s13.88-20.65,18.55-35.35c4.66-14.7,8.51-29.16,11.55-43.4,3.03-14.23,5.25-27.88,6.65-40.95,0-4.66,2.21-7.58,6.65-8.75,4.43-1.16,8.63-.58,12.6,1.75,3.96,2.34,5.71,5.37,5.25,9.1-1.4,10.74-2.57,20.19-3.5,28.35-.94,8.17-2.69,18.2-5.25,30.1-2.57,11.9-5.25,22.29-8.05,31.15-2.8,8.87-6.77,17.97-11.9,27.3-5.14,9.33-10.74,16.91-16.8,22.75-6.07,5.83-13.42,10.5-22.05,14-8.64,3.5-18.09,4.78-28.35,3.85Zm-59.5-218.4c.46,0,2.1-2.1,4.9-6.3,26.13-39.66,45.5-75.6,58.1-107.8,21.46-53.66,28.23-100.56,20.3-140.7-2.8-14-6.77-23.8-11.9-29.4-3.74-4.2-7.7-5.13-11.9-2.8-14.94,7-28.7,42.94-41.3,107.8-9.34,44.34-15.17,90.54-17.5,138.6-.47,3.74-.7,8.99-.7,15.75v24.85Z"/><path class="h" d="M7185.81,1494.63c-2.8,6.07-8.75,16.34-17.85,30.8-9.1,14.47-22.99,32.2-41.65,53.2-18.67,21-37.1,37.1-55.3,48.3-27.07,15.4-50.29,19.01-69.65,10.85-19.37-8.17-33.25-26.95-41.65-56.35-3.73-13.53-5.6-28-5.6-43.4,0-23.33,4.67-45.26,14-65.8,12.13-26.13,28.7-44.68,49.7-55.65,21-10.96,40.13-11.31,57.4-1.05,5.13,3.27,9.8,7.47,14,12.6,4.2,5.14,7.35,10.74,9.45,16.8,2.1,6.07,3.61,12.37,4.55,18.9,.93,6.54,.46,12.6-1.4,18.2-3.27,21-14.59,40.25-33.95,57.75-19.37,17.5-40.95,30.22-64.75,38.15,1.4,7.94,3.5,14.94,6.3,21,4.66,9.34,13.06,14.24,25.2,14.7,12.13,.47,22.16-2.1,30.1-7.7,17.73-9.8,36.28-25.9,55.65-48.3,19.36-22.4,36.51-45.03,51.45-67.9,1.86-5.6,5.36-7.46,10.5-5.6,5.13,1.87,6.3,5.37,3.5,10.5Zm-114.1,7c4.66-9.33,5.01-18.9,1.05-28.7-3.97-9.8-11.32-13.76-22.05-11.9-12.6,1.87-23.57,10.97-32.9,27.3-3.74,6.54-7,14.47-9.8,23.8-5.14,16.34-7.24,33.14-6.3,50.4v.7c15.4-7.46,29.51-16.8,42.35-28,12.83-11.2,22.05-22.4,27.65-33.6Z"/></g><g><path class="h" d="M4903.3,1828.01l16.5,4.3c.26,3.39,.39,6.32,.39,8.79,0,12.96-4.69,23.31-14.06,31.05-9.38,7.75-21.94,11.62-37.7,11.62-39.52,0-59.28-22.23-59.28-66.7,0-21.09,5.76-38.2,17.29-51.32,11.52-13.12,26.53-19.68,45.02-19.68,28.84,0,43.26,13.87,43.26,41.6l-16.6,7.62c.2-3.91,.29-6.93,.29-9.08,0-19.66-7.88-29.49-23.63-29.49-16.67,0-25,20.87-25,62.6,0,35.87,9.31,53.81,27.93,53.81,7.68,0,14.08-3.06,19.19-9.18,5.11-6.12,7.67-13.77,7.67-22.95,0-2.93-.42-7.26-1.27-12.99Z"/><path class="h" d="M5075.04,1748.22v89.45c0,30.66-16.96,46-50.88,46s-50.68-15.33-50.68-46v-89.45h38.67v90.63c0,11.72,1.68,19.73,5.03,24.02,3.35,4.3,9.55,6.45,18.6,6.45,17.51,0,26.27-10.55,26.27-31.64v-89.45h12.99Z"/><path class="h" d="M5136.04,1881.52v-133.3h57.52c32.62,0,48.93,13.05,48.93,39.16s-18.13,39.55-54.39,39.55h-13.38v54.59h-38.67Zm38.67-66.89h8.69c14.06,0,21.09-9.31,21.09-27.93,0-17.45-7.03-26.17-21.09-26.17h-8.69v54.1Z"/><path class="h" d="M5383.75,1828.01l16.5,4.3c.26,3.39,.39,6.32,.39,8.79,0,12.96-4.69,23.31-14.06,31.05-9.38,7.75-21.94,11.62-37.7,11.62-39.52,0-59.28-22.23-59.28-66.7,0-21.09,5.76-38.2,17.29-51.32,11.52-13.12,26.53-19.68,45.02-19.68,28.84,0,43.26,13.87,43.26,41.6l-16.6,7.62c.2-3.91,.29-6.93,.29-9.08,0-19.66-7.88-29.49-23.63-29.49-16.67,0-25,20.87-25,62.6,0,35.87,9.31,53.81,27.93,53.81,7.68,0,14.08-3.06,19.19-9.18,5.11-6.12,7.67-13.77,7.67-22.95,0-2.93-.42-7.26-1.27-12.99Z"/><path class="h" d="M5515.84,1748.22l37.11,133.3h-38.87l-7.91-28.91h-40.14l-8.5,28.91h-15.14l39.45-133.3h33.98Zm-46,91.02h32.71l-15.72-59.08-16.99,59.08Z"/><path class="h" d="M5706.04,1748.22l-33.3,42.09,49.12,91.21h-43.07l-31.25-58.4-5.57,6.25v52.15h-38.67v-133.3h38.67v59.38l45.9-59.38h18.16Z"/><path class="h" d="M5858.14,1748.22v13.38h-47.75v40.33h40.14v13.38h-40.14v52.83h55.86v13.38h-94.53v-133.3h86.43Z"/><path class="h" d="M5918.36,1881.52v-133.3h57.32c14.91,0,26.82,3.14,35.74,9.42,8.92,6.28,13.38,14.7,13.38,25.24,0,16.15-9.57,26.66-28.71,31.54,9.83,3.65,16.19,7.65,19.09,12.01,2.9,4.36,4.87,12.83,5.91,25.39,1.24,14.97,3.74,24.87,7.52,29.69h-41.99c-2.67-6.18-4-13.9-4-23.14l-.2-7.91-.2-9.96c0-15.36-6.19-23.05-18.55-23.05h-6.64v64.06h-38.67Zm38.67-75.1h7.81c14.65,0,21.97-7.65,21.97-22.95s-7.32-22.95-21.97-22.95h-7.81v45.9Z"/><path class="h" d="M6177.89,1748.22l-32.52,84.08v49.22h-38.67v-49.22l-35.94-84.08h40.14l27.15,64.26,24.41-64.26h15.43Z"/></g></g><g id="g"/></svg>